<svg width="153" height="36" viewBox="0 0 153 36" fill="none" xmlns="http://www.w3.org/2000/svg">
<g clip-path="url(#clip0_3392_5601)">
<path d="M21.15 -0.458995L21.15 13.9484L21.4551 13.9546H35.8058L35.8058 20.1013L24.0526 20.1013L32.3568 28.4054L28.0107 32.7516L21.15 25.8909L21.15 35.5393L15.0034 35.5393L15.0034 24.6492L6.90098 32.7516L2.55486 28.4054L10.8591 20.1013L-0.200267 20.0935L-0.201819 13.9484L9.20753 13.9484L2.55486 7.29572L6.90098 2.9496L15.0034 11.052L15.0034 -0.458995L21.15 -0.458995Z" fill="#0D0D0D"/>
</g>
<path d="M145.242 17.8119V17.1119C145.242 14.9785 144.209 14.2451 142.209 14.2451C140.442 14.2451 139.242 15.1451 139.009 16.8785H133.875C134.142 13.5118 137.342 10.5117 142.675 10.5117C147.842 10.5117 150.776 12.6118 150.676 18.0452L150.609 21.9453V23.812C150.609 25.7787 150.742 27.9121 151.009 29.0121H145.609L145.542 26.8454C144.209 28.7454 142.075 29.4455 139.509 29.4455C136.109 29.4455 133.309 27.4454 133.309 24.1787C133.309 19.7786 138.275 18.3452 145.242 17.8119ZM145.376 21.4786V21.0453C141.542 21.4119 138.975 21.812 138.975 23.7787C138.975 24.9454 140.075 25.712 141.509 25.712C143.709 25.712 145.376 24.7787 145.376 21.4786Z" fill="#0D0D0D"/>
<path d="M125.471 29.0167V26.5167C124.371 28.2834 122.971 29.4501 120.204 29.4501C115.437 29.4501 114.004 26.75 114.004 21.8832V11.083H119.504V20.5165C119.504 23.0833 119.571 25.1833 122.237 25.1833C124.604 25.1833 125.471 23.8833 125.471 20.5499V11.083H130.971V29.0167H125.471Z" fill="#0D0D0D"/>
<path d="M99.8321 11.0787V13.4454C100.632 12.1121 102.566 10.6787 105.399 10.6787C109.999 10.6787 111.432 13.3788 111.432 18.2455V29.0124H105.932V19.6122C105.932 17.0455 105.832 14.9455 103.166 14.9455C100.799 14.9455 99.8321 16.4788 99.8321 19.8122V29.0124H94.332V11.0787H99.8321Z" fill="#0D0D0D"/>
<path d="M86.962 23.3834H92.0288C90.4287 27.6168 86.662 29.4502 83.0953 29.4502C77.2618 29.4502 73.2617 25.9168 73.2617 19.95C73.2617 14.2165 77.6285 10.5498 82.8619 10.5498C88.8287 10.5498 92.4621 15.0499 92.0954 21.45H78.7952C78.9618 24.0168 80.9285 25.1834 82.9286 25.1834C85.0286 25.1834 86.3287 24.4501 86.962 23.3834ZM82.8619 14.7499C80.8952 14.7499 79.1618 15.7499 78.8618 18.1166H86.6287C86.5287 15.8499 84.962 14.7499 82.8619 14.7499Z" fill="#0D0D0D"/>
<path d="M66.3628 29.0168L61.1294 19.9166H57.2626V29.0168H51.5625V4.84961H60.8627C67.1295 4.84961 71.8296 6.34964 71.8296 12.3164C71.8296 15.8832 69.8629 17.9166 67.0962 18.9832L73.0629 29.0168H66.3628ZM61.0294 9.64971H57.2626V15.1165H61.0294C63.7294 15.1165 65.7961 14.6832 65.7961 12.3831C65.7961 10.1497 63.7294 9.64971 61.0294 9.64971Z" fill="#0D0D0D"/>
<defs>
<clipPath id="clip0_3392_5601">
<rect width="35.7076" height="35.7076" fill="white"/>
</clipPath>
</defs>
</svg>
