<svg width="299" height="110" viewBox="0 0 299 110" fill="none" xmlns="http://www.w3.org/2000/svg">
<g clip-path="url(#clip0_3392_5680)">
<path d="M117.347 39H79.5V44.3281H115.458V44.3321C116.498 44.3321 117.334 45.1025 117.334 46.0503V63.9517L117.326 63.9639C117.317 64.9118 116.478 65.6729 115.447 65.6729H87.1908C86.1554 65.6729 85.3115 64.9056 85.3115 63.9517V56.7166C85.3115 55.7667 86.1554 54.9984 87.1908 54.9984H111.505V49.6724H85.2971C82.094 49.6724 79.5 52.0467 79.5 54.9811V65.6862C79.5 68.6196 82.094 70.9999 85.2971 70.9999H117.347C120.553 70.9999 123.144 68.6196 123.144 65.6862V44.3127C123.144 41.3783 120.553 39 117.347 39Z" fill="#84858C"/>
<path d="M144.77 47L149.316 59.4631C149.86 60.9823 150.239 61.3353 151.19 61.3353H152.117V63.528H142.189V61.3353H143C143.818 61.3353 144.502 61.2343 144.502 60.9609C144.502 60.7099 144.471 60.4364 144.365 60.064L143.794 58.2673H138.242L137.918 59.2641C137.616 60.1365 137.509 60.5099 137.509 60.8589C137.509 61.2619 138.46 61.3364 139.198 61.3364H139.982V63.529H131.988V61.3353H132.911C133.863 61.3353 134.243 60.9823 134.791 59.4631L139.333 47H144.77ZM139.024 56.0756H142.976L141.016 50.7119H140.965L139.024 56.0756Z" fill="#84858C"/>
<path d="M153.694 50.066C153.694 49.3661 153.503 48.9947 152.714 48.9947H151.465V47H158.212V53.2065C159.215 52.1577 160.495 51.4863 161.717 51.4863C165.798 51.4863 167.317 54.4054 167.317 57.6928C167.317 60.9823 165.798 63.8963 161.717 63.8963C160.005 63.8963 158.482 63.3515 157.527 61.9791L156.74 63.528H153.693V50.066M158.212 57.6928C158.212 60.2354 158.835 61.7577 160.358 61.7577C161.884 61.7577 162.508 60.2354 162.508 57.6928C162.508 55.1502 161.884 53.633 160.358 53.633C158.835 53.633 158.212 55.1502 158.212 57.6928Z" fill="#84858C"/>
<path d="M168.957 50.066C168.957 49.3661 168.763 48.9947 167.979 48.9947H166.727V47H173.474V53.2065C174.48 52.1577 175.759 51.4863 176.982 51.4863C181.061 51.4863 182.586 54.4054 182.586 57.6928C182.586 60.9823 181.061 63.8963 176.982 63.8963C175.266 63.8963 173.746 63.3515 172.79 61.9791L172.003 63.528H168.957V50.066ZM173.473 57.6928C173.473 60.2354 174.1 61.7577 175.62 61.7577C177.145 61.7577 177.77 60.2354 177.77 57.6928C177.77 55.1502 177.145 53.633 175.62 53.633C174.101 53.633 173.473 55.1502 173.473 57.6928Z" fill="#84858C"/>
<path d="M197.927 57.6929C197.927 61.6812 194.961 63.8963 190.908 63.8963C186.853 63.8963 183.887 61.6812 183.887 57.6929C183.887 53.7035 186.853 51.4863 190.908 51.4863C194.961 51.4863 197.927 53.7035 197.927 57.6929ZM188.704 57.6929C188.704 60.6324 189.274 61.9047 190.908 61.9047C192.541 61.9047 193.112 60.6324 193.112 57.6929C193.112 54.7513 192.541 53.481 190.908 53.481C189.274 53.481 188.704 54.7513 188.704 57.6929Z" fill="#84858C"/>
<path d="M217.321 57.894V59.8397C217.321 60.9814 217.05 61.6589 216.015 61.6589C215.388 61.6589 215.091 61.2334 215.091 60.709V53.8525H218.434V51.8619H215.091V47.2246H212.398C212.177 49.2928 211.473 51.8619 208.754 51.8619H204.51V47.2246H201.818C201.596 49.2928 200.892 51.8619 198.172 51.8619V53.8525H199.997V60.1121C199.997 62.6547 201.545 63.8965 204.345 63.8965C207.613 63.8965 208.914 62.5547 208.914 60.1121V57.893H206.744V59.8387C206.744 60.9804 206.469 61.6579 205.435 61.6579C204.808 61.6579 204.511 61.2324 204.511 60.708V53.8515H210.58V60.1111C210.58 62.6537 212.126 63.8954 214.927 63.8954C218.194 63.8954 219.5 62.5537 219.5 60.1111V57.8919H217.321" fill="#84858C"/>
</g>
<defs>
<clipPath id="clip0_3392_5680">
<rect width="140" height="32" fill="white" transform="translate(79.5 39)"/>
</clipPath>
</defs>
</svg>
