<svg width="140" height="32" viewBox="0 0 140 32" fill="none" xmlns="http://www.w3.org/2000/svg">
<g clip-path="url(#clip0_3392_5681)">
<path d="M37.8473 0H0V5.32805H35.958V5.33213C36.9978 5.33213 37.834 6.10247 37.834 7.05033V24.9517L37.8262 24.9639C37.8173 25.9118 36.9778 26.6729 35.9469 26.6729H7.69081C6.65543 26.6729 5.81153 25.9056 5.81153 24.9517V17.7166C5.81153 16.7667 6.65543 15.9984 7.69081 15.9984H32.0046V10.6724H5.79706C2.59403 10.6724 0 13.0467 0 15.9811V26.6862C0 29.6196 2.59403 31.9999 5.79706 31.9999H37.8473C41.0526 31.9999 43.6444 29.6196 43.6444 26.6862V5.31275C43.6444 2.37834 41.0526 0 37.8473 0Z" fill="#84858C"/>
<path d="M65.2703 8L69.816 20.4631C70.3604 21.9823 70.7389 22.3353 71.6897 22.3353H72.6171V24.528H62.6885V22.3353H63.5001C64.3184 22.3353 65.002 22.2343 65.002 21.9609C65.002 21.7099 64.9708 21.4364 64.8651 21.064L64.2939 19.2673H58.7418L58.4178 20.2641C58.1161 21.1365 58.0092 21.5099 58.0092 21.8589C58.0092 22.2619 58.96 22.3364 59.6981 22.3364H60.4819V24.529H52.4883V22.3353H53.4112C54.3631 22.3353 54.7428 21.9823 55.2905 20.4631L59.8329 8H65.2703ZM59.5245 17.0756H63.4756L61.5162 11.7119H61.465L59.5245 17.0756Z" fill="#84858C"/>
<path d="M74.1937 11.066C74.1937 10.3661 74.0033 9.9947 73.214 9.9947H71.9648V8H78.7116V14.2065C79.7147 13.1577 80.995 12.4863 82.2174 12.4863C86.2977 12.4863 87.8174 15.4054 87.8174 18.6928C87.8174 21.9823 86.2977 24.8963 82.2174 24.8963C80.5051 24.8963 78.9821 24.3515 78.0269 22.9791L77.2398 24.528H74.1926V11.066M78.7116 18.6928C78.7116 21.2354 79.335 22.7577 80.858 22.7577C82.3844 22.7577 83.0079 21.2354 83.0079 18.6928C83.0079 16.1502 82.3844 14.633 80.858 14.633C79.335 14.633 78.7116 16.1502 78.7116 18.6928Z" fill="#84858C"/>
<path d="M89.4565 11.066C89.4565 10.3661 89.2628 9.9947 88.479 9.9947H87.2266V8H93.9744V14.2065C94.9797 13.1577 96.2589 12.4863 97.4825 12.4863C101.561 12.4863 103.086 15.4054 103.086 18.6928C103.086 21.9823 101.561 24.8963 97.4825 24.8963C95.7657 24.8963 94.246 24.3515 93.2897 22.9791L92.5026 24.528H89.4565V11.066ZM93.9733 18.6928C93.9733 21.2354 94.6001 22.7577 96.1198 22.7577C97.645 22.7577 98.2696 21.2354 98.2696 18.6928C98.2696 16.1502 97.645 14.633 96.1198 14.633C94.6012 14.633 93.9733 16.1502 93.9733 18.6928Z" fill="#84858C"/>
<path d="M118.427 18.6929C118.427 22.6812 115.461 24.8963 111.408 24.8963C107.353 24.8963 104.387 22.6812 104.387 18.6929C104.387 14.7035 107.353 12.4863 111.408 12.4863C115.461 12.4863 118.427 14.7035 118.427 18.6929ZM109.204 18.6929C109.204 21.6324 109.774 22.9047 111.408 22.9047C113.041 22.9047 113.612 21.6324 113.612 18.6929C113.612 15.7513 113.041 14.481 111.408 14.481C109.774 14.481 109.204 15.7513 109.204 18.6929Z" fill="#84858C"/>
<path d="M137.821 18.894V20.8397C137.821 21.9814 137.55 22.6589 136.515 22.6589C135.888 22.6589 135.591 22.2334 135.591 21.709V14.8525H138.934V12.8619H135.591V8.22461H132.898C132.677 10.2928 131.973 12.8619 129.254 12.8619H125.01V8.22461H122.318C122.096 10.2928 121.392 12.8619 118.672 12.8619V14.8525H120.497V21.1121C120.497 23.6547 122.045 24.8965 124.845 24.8965C128.113 24.8965 129.414 23.5547 129.414 21.1121V18.893H127.244V20.8387C127.244 21.9804 126.969 22.6579 125.935 22.6579C125.308 22.6579 125.011 22.2324 125.011 21.708V14.8515H131.08V21.1111C131.08 23.6537 132.626 24.8954 135.427 24.8954C138.694 24.8954 140 23.5537 140 21.1111V18.8919H137.821" fill="#84858C"/>
</g>
<defs>
<clipPath id="clip0_3392_5681">
<rect width="140" height="32" fill="white"/>
</clipPath>
</defs>
</svg>
