<svg width="299" height="110" viewBox="0 0 299 110" fill="none" xmlns="http://www.w3.org/2000/svg">
<path d="M154.868 63.5605V46.4541H152.054L145.708 60.2234L139.346 46.4541H136.547V63.5605H138.912V51.1892L144.615 63.5605H146.77L152.473 51.1892V63.5605H154.868Z" fill="#84858C"/>
<path d="M127.593 53.3989C126.156 53.3838 122.639 53.5792 120.528 55.5334C119.465 56.5255 118.941 57.7882 118.941 59.2914C118.941 60.8998 119.57 62.1474 120.827 62.9592C121.815 63.5905 123.177 63.9362 124.779 63.9362C126.605 63.9362 128.446 63.5154 129.464 63.0794C130.198 62.7638 130.916 62.3729 131.62 61.8618L131.65 63.5304H134.015L134.03 54.7517C134.015 54.421 134 52.6924 133.955 52.076C133.79 49.3252 132.353 46.0332 126.381 46.0332C120.753 46.0332 119.585 50.3323 119.465 50.8284L119.256 51.7002H121.696L121.845 51.1892C121.98 50.7232 122.848 48.3932 126.396 48.3932C129.838 48.3932 131.425 49.5657 131.59 52.2113C131.62 52.542 131.62 52.9028 131.62 53.3387L130.153 53.3538C129 53.3989 127.683 53.3989 127.593 53.3989ZM131.665 55.7138C131.665 56.6157 131.65 57.6228 131.635 58.7202C131.245 59.1411 130.123 60.2534 128.551 60.9148C127.204 61.471 123.716 62.0272 122.145 61.005C121.591 60.6442 121.321 60.1031 121.321 59.3064C121.321 58.4496 121.591 57.7882 122.175 57.2621C123.612 55.9092 126.426 55.7589 127.578 55.7589C127.758 55.7589 127.863 55.7589 127.937 55.7739L131.665 55.7138Z" fill="#84858C"/>
<path d="M179.699 72.7753H112.745V37.2247H179.699V42.997H181.944V35H110.5V75H181.944V67.018H179.699V72.7753Z" fill="#84858C"/>
<path d="M165.045 48.4235C166.886 48.4235 168.593 49.3555 169.73 50.9789L169.805 51.0841H172.514L172.32 50.6933C170.853 47.8372 168.069 46.0635 165.045 46.0635C160.465 46.0635 156.723 50.062 156.723 54.9924C156.723 59.9229 160.45 63.9214 165.045 63.9214C168.069 63.9214 170.853 62.1477 172.32 59.2766L172.514 58.8857H169.805L169.73 58.9909C168.593 60.6144 166.886 61.5464 165.045 61.5464C161.767 61.5464 159.118 58.6001 159.118 54.9774C159.103 51.3848 161.767 48.4235 165.045 48.4235Z" fill="#84858C"/>
<path d="M181.928 53.9256V47.4619H179.728V53.9256H173.172V56.0903H179.728V62.554H181.928V56.0903H188.499V53.9256H181.928Z" fill="#84858C"/>
</svg>
