<svg width="78" height="40" viewBox="0 0 78 40" fill="none" xmlns="http://www.w3.org/2000/svg">
<path d="M44.3681 28.5605V11.4541H41.5541L35.2075 25.2234L28.846 11.4541H26.0469V28.5605H28.4119V16.1892L34.1148 28.5605H36.2703L41.9732 16.1892V28.5605H44.3681Z" fill="#84858C"/>
<path d="M17.0931 18.3989C15.6562 18.3838 12.1386 18.5792 10.0281 20.5334C8.9653 21.5255 8.44141 22.7882 8.44141 24.2914C8.44141 25.8998 9.07008 27.1474 10.3274 27.9592C11.3153 28.5905 12.6775 28.9362 14.2791 28.9362C16.1052 28.9362 17.9463 28.5154 18.9642 28.0794C19.6976 27.7638 20.4161 27.3729 21.1196 26.8618L21.1495 28.5304H23.5145L23.5295 19.7517C23.5145 19.421 23.4996 17.6924 23.4547 17.076C23.29 14.3252 21.8531 11.0332 15.8807 11.0332C10.2526 11.0332 9.08505 15.3323 8.9653 15.8284L8.75574 16.7002H11.1956L11.3453 16.1892C11.48 15.7232 12.3481 13.3932 15.8956 13.3932C19.3384 13.3932 20.925 14.5657 21.0897 17.2113C21.1196 17.542 21.1196 17.9028 21.1196 18.3387L19.6527 18.3538C18.5001 18.3989 17.1829 18.3989 17.0931 18.3989ZM21.1645 20.7138C21.1645 21.6157 21.1495 22.6228 21.1346 23.7202C20.7454 24.1411 19.6228 25.2534 18.0511 25.9148C16.7039 26.471 13.2163 27.0272 11.6446 26.005C11.0908 25.6442 10.8214 25.1031 10.8214 24.3064C10.8214 23.4496 11.0908 22.7882 11.6746 22.2621C13.1115 20.9092 15.9256 20.7589 17.0781 20.7589C17.2578 20.7589 17.3625 20.7589 17.4374 20.7739L21.1645 20.7138Z" fill="#84858C"/>
<path d="M69.1987 37.7753H2.24525V2.22473H69.1987V7.997H71.444V0H0V40H71.444V32.018H69.1987V37.7753Z" fill="#84858C"/>
<path d="M54.5451 13.4235C56.3862 13.4235 58.0926 14.3555 59.2302 15.9789L59.305 16.0841H62.0143L61.8197 15.6933C60.3528 12.8372 57.5687 11.0635 54.5451 11.0635C49.9647 11.0635 46.2227 15.062 46.2227 19.9924C46.2227 24.9229 49.9498 28.9214 54.5451 28.9214C57.5687 28.9214 60.3528 27.1477 61.8197 24.2766L62.0143 23.8857H59.305L59.2302 23.9909C58.0926 25.6144 56.3862 26.5464 54.5451 26.5464C51.267 26.5464 48.6176 23.6001 48.6176 19.9774C48.6026 16.3848 51.267 13.4235 54.5451 13.4235Z" fill="#84858C"/>
<path d="M71.4284 18.9256V12.4619H69.228V18.9256H62.6719V21.0903H69.228V27.554H71.4284V21.0903H77.9995V18.9256H71.4284Z" fill="#84858C"/>
</svg>
