<svg width="299" height="110" viewBox="0 0 299 110" fill="none" xmlns="http://www.w3.org/2000/svg">
<g clip-path="url(#clip0_3392_5689)">
<path d="M88.8349 52.7658L94.2036 47.3284L99.5753 52.7687L102.699 49.6047L94.2036 41L85.7109 49.6018L88.8349 52.7658Z" fill="#84858C"/>
<path d="M86.6278 54.9999L83.5039 51.8359L80.3799 55L83.5038 58.164L86.6278 54.9999Z" fill="#84858C"/>
<path d="M88.8355 57.2341L94.2043 62.6715L99.5757 57.2314L102.701 60.3937L102.7 60.3954L94.2043 68.9999L85.7114 60.3983L85.707 60.3939L88.8355 57.2341Z" fill="#84858C"/>
<path d="M104.903 58.1651L108.027 55.001L104.903 51.837L101.779 55.0011L104.903 58.1651Z" fill="#84858C"/>
<path d="M97.3715 54.9987H97.3728L94.2028 51.7881L91.8601 54.1608H91.8599L91.5909 54.4335L91.0356 54.9959L91.0312 55.0003L91.0356 55.0049L94.2028 58.2127L97.3728 55.0021L97.3743 55.0003L97.3715 54.9987Z" fill="#84858C"/>
<path d="M112.898 47.7842H119.693C121.379 47.7842 122.654 48.2225 123.519 49.0991C124.187 49.7781 124.522 50.6195 124.522 51.6233V51.6658C124.522 52.09 124.47 52.4648 124.366 52.7899C124.262 53.1154 124.123 53.4085 123.949 53.6701C123.776 53.9319 123.575 54.1617 123.346 54.3594C123.117 54.5576 122.871 54.7274 122.607 54.8685C123.455 55.194 124.122 55.6357 124.609 56.1943C125.095 56.7531 125.338 57.5274 125.338 58.517V58.5593C125.338 59.2382 125.21 59.832 124.952 60.3413C124.694 60.8502 124.324 61.2745 123.843 61.614C123.362 61.9535 122.784 62.2078 122.108 62.3776C121.432 62.5473 120.683 62.632 119.861 62.632H112.898V47.7842ZM119.014 53.7868C119.726 53.7868 120.291 53.6634 120.71 53.4158C121.129 53.1683 121.338 52.7687 121.338 52.2173V52.1749C121.338 51.6802 121.156 51.302 120.794 51.0402C120.43 50.7785 119.907 50.6476 119.223 50.6476H116.04V53.7868H119.014ZM119.872 59.7687C120.584 59.7687 121.142 59.6383 121.548 59.3764C121.953 59.1148 122.155 58.7081 122.155 58.1565V58.1143C122.155 57.6194 121.966 57.2271 121.59 56.9369C121.213 56.6474 120.605 56.5023 119.767 56.5023H116.04V59.769H119.872V59.7687Z" fill="#84858C"/>
<path d="M129.383 47.7842H132.608V62.6324H129.383V47.7842Z" fill="#84858C"/>
<path d="M137.492 47.7842H140.466L147.335 56.9265V47.7842H150.518V62.6324H147.775L140.675 53.1933V62.6324H137.492V47.7842Z" fill="#84858C"/>
<path d="M160.283 47.6787H163.257L169.54 62.6329H166.168L164.828 59.3028H158.629L157.289 62.6329H154L160.283 47.6787ZM163.676 56.4177L161.728 51.6028L159.781 56.4177H163.676Z" fill="#84858C"/>
<path d="M173.023 47.7842H175.998L182.867 56.9265V47.7842H186.05V62.6324H183.307L176.207 53.1933V62.6324H173.023V47.7842Z" fill="#84858C"/>
<path d="M197.655 62.8874C196.58 62.8874 195.582 62.6892 194.66 62.2936C193.739 61.8979 192.943 61.3568 192.273 60.6708C191.603 59.985 191.079 59.1754 190.702 58.2421C190.325 57.3086 190.137 56.3117 190.137 55.2511V55.2088C190.137 54.1482 190.325 53.155 190.702 52.2286C191.079 51.3024 191.603 50.4893 192.273 49.7893C192.943 49.0894 193.746 48.5376 194.681 48.1347C195.616 47.7317 196.65 47.5303 197.781 47.5303C198.465 47.5303 199.089 47.5871 199.655 47.6999C200.22 47.8133 200.733 47.9686 201.194 48.1665C201.655 48.3647 202.081 48.6051 202.472 48.8877C202.862 49.1708 203.226 49.4817 203.561 49.8212L201.509 52.218C200.936 51.695 200.353 51.2845 199.76 50.9877C199.166 50.6909 198.5 50.5423 197.76 50.5423C197.145 50.5423 196.576 50.6626 196.053 50.903C195.53 51.1434 195.079 51.4756 194.702 51.8998C194.325 52.3239 194.032 52.8155 193.822 53.3739C193.613 53.9328 193.509 54.5301 193.509 55.1664V55.2086C193.509 55.8448 193.613 56.4461 193.822 57.0114C194.032 57.5773 194.321 58.072 194.692 58.4962C195.061 58.9204 195.508 59.2565 196.032 59.504C196.556 59.7517 197.132 59.8751 197.76 59.8751C198.598 59.8751 199.306 59.7196 199.885 59.4085C200.465 59.0977 201.041 58.6733 201.613 58.1357L203.666 60.2358C203.289 60.646 202.897 61.0138 202.493 61.3386C202.088 61.6642 201.645 61.9433 201.163 62.1768C200.681 62.4099 200.154 62.587 199.582 62.7069C199.009 62.827 198.367 62.8874 197.655 62.8874Z" fill="#84858C"/>
<path d="M207.465 47.7842H218.502V50.6903H210.648V53.7024H217.56V56.6083H210.648V59.7265H218.607V62.6324H207.465V47.7842Z" fill="#84858C"/>
</g>
<defs>
<clipPath id="clip0_3392_5689">
<rect width="138" height="28" fill="white" transform="translate(80.5 41)"/>
</clipPath>
</defs>
</svg>
