<svg width="138" height="28" viewBox="0 0 138 28" fill="none" xmlns="http://www.w3.org/2000/svg">
<g clip-path="url(#clip0_3392_5690)">
<path d="M8.33487 11.7658L13.7036 6.32842L19.0753 11.7687L22.1992 8.60472L13.7036 0L5.21094 8.60184L8.33487 11.7658Z" fill="#84858C"/>
<path d="M6.12778 13.9999L3.00391 10.8359L-0.120122 14L3.00375 17.164L6.12778 13.9999Z" fill="#84858C"/>
<path d="M8.33554 16.2341L13.7043 21.6715L19.0757 16.2314L22.2014 19.3937L22.1999 19.3954L13.7043 27.9999L5.2114 19.3983L5.20703 19.3939L8.33554 16.2341Z" fill="#84858C"/>
<path d="M24.4033 17.1651L27.5273 14.001L24.4035 10.837L21.2794 14.0011L24.4033 17.1651Z" fill="#84858C"/>
<path d="M16.8715 13.9987H16.8728L13.7028 10.7881L11.3601 13.1608H11.3599L11.0909 13.4335L10.5356 13.9959L10.5312 14.0003L10.5356 14.0049L13.7028 17.2127L16.8728 14.0021L16.8743 14.0003L16.8715 13.9987Z" fill="#84858C"/>
<path d="M32.3984 6.78418H39.1928C40.8791 6.78418 42.1543 7.2225 43.0185 8.09914C43.6873 8.77807 44.0216 9.61954 44.0216 10.6233V10.6658C44.0216 11.09 43.9699 11.4648 43.8657 11.7899C43.7618 12.1154 43.6229 12.4085 43.4493 12.6701C43.2762 12.9319 43.0749 13.1617 42.846 13.3594C42.617 13.5576 42.3709 13.7274 42.1074 13.8685C42.955 14.194 43.6223 14.6357 44.1087 15.1943C44.595 15.7531 44.8385 16.5274 44.8385 17.517V17.5593C44.8385 18.2382 44.7096 18.832 44.4518 19.3413C44.1939 19.8502 43.8245 20.2745 43.3434 20.614C42.8624 20.9535 42.284 21.2078 41.608 21.3776C40.932 21.5473 40.1828 21.632 39.3607 21.632H32.3984V6.78418ZM38.5135 12.7868C39.2258 12.7868 39.7913 12.6634 40.2099 12.4158C40.6287 12.1683 40.8381 11.7687 40.8381 11.2173V11.1749C40.8381 10.6802 40.6564 10.302 40.2935 10.0402C39.9304 9.77855 39.4068 9.64763 38.7229 9.64763H35.5396V12.7868H38.5135ZM39.3723 18.7687C40.0843 18.7687 40.6424 18.6383 41.0477 18.3764C41.4525 18.1148 41.6552 17.7081 41.6552 17.1565V17.1143C41.6552 16.6194 41.4665 16.2271 41.0896 15.9369C40.7125 15.6474 40.1053 15.5023 39.2675 15.5023H35.5396V18.769H39.3723V18.7687Z" fill="#84858C"/>
<path d="M48.8828 6.78418H52.1083V21.6324H48.8828V6.78418Z" fill="#84858C"/>
<path d="M56.9922 6.78418H59.9657L66.8352 15.9265V6.78418H70.0185V21.6324H67.2751L60.1753 12.1933V21.6324H56.9922V6.78418Z" fill="#84858C"/>
<path d="M79.7834 6.67871H82.7571L89.0404 21.6329H85.6684L84.328 18.3028H78.1288L76.7886 21.6329H73.5L79.7834 6.67871ZM83.1762 15.4177L81.2283 10.6028L79.281 15.4177H83.1762Z" fill="#84858C"/>
<path d="M92.5234 6.78418H95.4976L102.367 15.9265V6.78418H105.55V21.6324H102.807L95.7068 12.1933V21.6324H92.5234V6.78418Z" fill="#84858C"/>
<path d="M117.155 21.8874C116.08 21.8874 115.082 21.6892 114.16 21.2936C113.239 20.8979 112.443 20.3568 111.773 19.6708C111.103 18.985 110.579 18.1754 110.202 17.2421C109.825 16.3086 109.637 15.3117 109.637 14.2511V14.2088C109.637 13.1482 109.825 12.155 110.202 11.2286C110.579 10.3024 111.103 9.48926 111.773 8.78932C112.443 8.08938 113.246 7.53761 114.181 7.13468C115.116 6.73174 116.15 6.53027 117.281 6.53027C117.965 6.53027 118.589 6.58711 119.155 6.6999C119.72 6.81335 120.233 6.96859 120.694 7.16652C121.155 7.36467 121.581 7.60506 121.972 7.88769C122.362 8.17076 122.726 8.4817 123.061 8.82116L121.009 11.218C120.436 10.695 119.853 10.2845 119.26 9.98773C118.666 9.69095 118 9.54233 117.26 9.54233C116.645 9.54233 116.076 9.66264 115.553 9.90303C115.03 10.1434 114.579 10.4756 114.202 10.8998C113.825 11.3239 113.532 11.8155 113.322 12.3739C113.113 12.9328 113.009 13.5301 113.009 14.1664V14.2086C113.009 14.8448 113.113 15.4461 113.322 16.0114C113.532 16.5773 113.821 17.072 114.192 17.4962C114.561 17.9204 115.008 18.2565 115.532 18.504C116.056 18.7517 116.632 18.8751 117.26 18.8751C118.098 18.8751 118.806 18.7196 119.385 18.4085C119.965 18.0977 120.541 17.6733 121.113 17.1357L123.166 19.2358C122.789 19.646 122.397 20.0138 121.993 20.3386C121.588 20.6642 121.145 20.9433 120.663 21.1768C120.181 21.4099 119.654 21.587 119.082 21.7069C118.509 21.827 117.867 21.8874 117.155 21.8874Z" fill="#84858C"/>
<path d="M126.965 6.78418H138.002V9.69031H130.148V12.7024H137.06V15.6083H130.148V18.7265H138.107V21.6324H126.965V6.78418Z" fill="#84858C"/>
</g>
<defs>
<clipPath id="clip0_3392_5690">
<rect width="138" height="28" fill="white"/>
</clipPath>
</defs>
</svg>
