<svg width="299" height="110" viewBox="0 0 299 110" fill="none" xmlns="http://www.w3.org/2000/svg">
<g clip-path="url(#clip0_3392_5735)">
<path d="M101.761 50.1672L102.448 47H87.9751C86.5586 47 85.1285 48.3012 84.7803 49.9066L82.5769 60.0709C82.229 61.6762 83.0949 62.9774 84.511 62.9774H98.9841L99.6707 59.8102H88.1572C87.685 59.8102 87.3964 59.3764 87.5123 58.8413L88.0041 56.5723H100.372L101.059 53.4051H88.6911L89.1829 51.136C89.2989 50.6009 89.7756 50.1672 90.2478 50.1672H101.761H101.761Z" fill="#84858C"/>
<path d="M120.687 50.1672L121.374 47H106.901C105.485 47 104.055 48.3012 103.706 49.9066L101.503 60.0709C101.155 61.6762 102.021 62.9774 103.437 62.9774H117.91L118.597 59.8102H107.083C106.611 59.8102 106.322 59.3764 106.438 58.8413L108.109 51.136C108.225 50.6009 108.702 50.1672 109.174 50.1672H120.687Z" fill="#84858C"/>
<path d="M125.571 58.8413L128.138 47H123.469L120.635 60.0709C120.288 61.6762 121.153 62.9774 122.57 62.9774H137.043L137.729 59.8102H126.216C125.744 59.8102 125.455 59.3764 125.571 58.8413H125.571Z" fill="#84858C"/>
<path d="M158.768 50.1672L159.455 47H142.417L141.73 50.1672H147.06C147.532 50.1672 147.82 50.6009 147.704 51.136L146.034 58.8413C145.918 59.3764 145.441 59.8102 144.969 59.8102H139.64L138.953 62.9774H155.991L156.677 59.8102H151.348C150.876 59.8102 150.587 59.3764 150.703 58.8413L152.374 51.136C152.49 50.6009 152.966 50.1672 153.439 50.1672H158.768Z" fill="#84858C"/>
<path d="M166.156 47H164.052C162.635 47 161.205 48.3012 160.857 49.9066L158.023 62.9774H162.692L164.081 56.5723H173.885C175.301 56.5723 176.731 55.2711 177.079 53.6657L177.894 49.9066C178.243 48.3012 177.376 47 175.96 47H166.157H166.156ZM171.636 53.4051H164.767L165.47 50.1672H172.338C172.81 50.1672 173.099 50.6009 172.983 51.136L172.701 52.4363C172.585 52.9714 172.108 53.4051 171.636 53.4051H171.636Z" fill="#84858C"/>
<path d="M191.422 62.9774H176.949L177.636 59.8102H189.128C189.601 59.8102 190.077 59.3764 190.193 58.8413L190.475 57.5412C190.591 57.006 190.302 56.5723 189.83 56.5723H180.902C179.486 56.5723 178.62 55.2711 178.968 53.6657L179.783 49.9066C180.131 48.3012 181.561 47 182.978 47H197.45L196.763 50.1672H185.25C184.778 50.1672 184.302 50.6009 184.185 51.136L183.904 52.4363C183.787 52.9714 184.076 53.4051 184.548 53.4051H193.497C194.914 53.4051 195.779 54.7063 195.431 56.3117L194.617 60.0709C194.269 61.6762 192.838 62.9774 191.421 62.9774H191.422Z" fill="#84858C"/>
<path d="M215.812 50.1672L216.499 47H202.027C200.61 47 199.18 48.3012 198.831 49.9066L196.628 60.0709C196.28 61.6762 197.146 62.9774 198.562 62.9774H213.035L213.722 59.8102H202.208C201.736 59.8102 201.447 59.3764 201.564 58.8413L202.055 56.5723H214.424L215.11 53.4051H202.742L203.234 51.136C203.35 50.6009 203.826 50.1672 204.299 50.1672H215.812Z" fill="#84858C"/>
</g>
<defs>
<clipPath id="clip0_3392_5735">
<rect width="134" height="16" fill="white" transform="translate(82.5 47)"/>
</clipPath>
</defs>
</svg>
