<svg width="134" height="16" viewBox="0 0 134 16" fill="none" xmlns="http://www.w3.org/2000/svg">
<g clip-path="url(#clip0_3392_5736)">
<path d="M19.2614 3.16719L19.9481 0H5.47508C4.05863 0 2.62851 1.30118 2.28031 2.90657L0.0768669 13.0709C-0.271046 14.6762 0.59489 15.9774 2.01105 15.9774H16.4841L17.1707 12.8102H5.65715C5.185 12.8102 4.89636 12.3764 5.01233 11.8413L5.50414 9.5723H17.8722L18.559 6.40511H6.19113L6.68294 4.13604C6.79891 3.60091 7.27562 3.16719 7.74776 3.16719H19.2611H19.2614Z" fill="#84858C"/>
<path d="M38.1872 3.16719L38.8738 0H24.4008C22.9846 0 21.5546 1.30118 21.2064 2.90657L19.0026 13.0709C18.6548 14.6762 19.5207 15.9774 20.9369 15.9774H35.4099L36.0965 12.8102H24.5832C24.1111 12.8102 23.8224 12.3764 23.9384 11.8413L25.609 4.13604C25.725 3.60091 26.2016 3.16719 26.6738 3.16719H38.1872Z" fill="#84858C"/>
<path d="M43.0709 11.8413L45.6382 0H40.9692L38.1354 13.0709C37.7876 14.6762 38.6535 15.9774 40.0697 15.9774H54.5427L55.2293 12.8102H43.716C43.2439 12.8102 42.9553 12.3764 43.0712 11.8413H43.0709Z" fill="#84858C"/>
<path d="M76.2679 3.16719L76.9546 0H59.9171L59.2304 3.16719H64.5596C65.0318 3.16719 65.3205 3.60091 65.2045 4.13604L63.5339 11.8413C63.4179 12.3764 62.9412 12.8102 62.4691 12.8102H57.1398L56.4531 15.9774H73.4906L74.1773 12.8102H68.848C68.3758 12.8102 68.0872 12.3764 68.2032 11.8413L69.8738 4.13604C69.9898 3.60091 70.4665 3.16719 70.9387 3.16719H76.2679Z" fill="#84858C"/>
<path d="M83.6563 0H81.5516C80.1355 0 78.7051 1.30118 78.3572 2.90657L75.5234 15.9774H80.1925L81.581 9.5723H91.3847C92.8012 9.5723 94.2313 8.27112 94.5795 6.66573L95.3944 2.90657C95.7426 1.30118 94.8764 0 93.4602 0H83.6566H83.6563ZM89.1359 6.40511H82.2674L82.9695 3.16719H89.838C90.3102 3.16719 90.5988 3.60091 90.4829 4.13604L90.201 5.43626C90.0851 5.97139 89.6084 6.40511 89.1362 6.40511H89.1359Z" fill="#84858C"/>
<path d="M108.922 15.9774H94.4492L95.136 12.8102H106.628C107.101 12.8102 107.577 12.3764 107.693 11.8413L107.975 10.5412C108.091 10.006 107.802 9.5723 107.33 9.5723H98.4022C96.9857 9.5723 96.1198 8.27112 96.4681 6.66573L97.283 2.90657C97.6309 1.30118 99.0612 0 100.478 0H114.95L114.263 3.16719H102.75C102.278 3.16719 101.802 3.60091 101.685 4.13604L101.404 5.43626C101.287 5.97139 101.576 6.40511 102.048 6.40511H110.997C112.414 6.40511 113.279 7.70628 112.931 9.31168L112.117 13.0709C111.769 14.6762 110.338 15.9774 108.921 15.9774H108.922Z" fill="#84858C"/>
<path d="M133.312 3.16719L133.999 0H119.527C118.11 0 116.68 1.30118 116.331 2.90657L114.128 13.0709C113.78 14.6762 114.646 15.9774 116.062 15.9774H130.535L131.222 12.8102H119.708C119.236 12.8102 118.947 12.3764 119.064 11.8413L119.555 9.5723H131.924L132.61 6.40511H120.242L120.734 4.13604C120.85 3.60091 121.326 3.16719 121.799 3.16719H133.312Z" fill="#84858C"/>
</g>
<defs>
<clipPath id="clip0_3392_5736">
<rect width="134" height="16" fill="white"/>
</clipPath>
</defs>
</svg>
