<svg width="299" height="110" viewBox="0 0 299 110" fill="none" xmlns="http://www.w3.org/2000/svg">
<g clip-path="url(#clip0_3392_5674)">
<path d="M149.5 36C121.322 36 98.5 44.4926 98.5 55.0004C98.5 65.505 121.324 74 149.5 74C177.68 74 200.5 65.5046 200.5 55.0004C200.5 44.4922 177.68 36 149.5 36Z" fill="#84858C"/>
<path d="M149.759 72.3334C122.625 72.3334 100.629 64.4877 100.629 54.8087C100.629 45.1285 122.625 37.2832 149.759 37.2832C176.891 37.2832 198.886 45.1281 198.886 54.8087C198.886 64.4873 176.89 72.3334 149.759 72.3334ZM149.759 38.8016C123.578 38.8016 102.356 45.9669 102.356 54.8087C102.356 63.6509 123.578 70.817 149.759 70.817C175.94 70.817 197.158 63.6505 197.158 54.8087C197.158 45.9669 175.938 38.8016 149.759 38.8016Z" fill="white"/>
<path d="M136.944 41.6476C136.246 41.6499 135.545 41.678 134.84 41.7377C130.154 42.142 125.694 44.846 125.686 48.9515C125.681 51.0333 127.125 52.7202 129.362 52.646C131.991 52.5546 134.15 50.3957 135.28 47.6738C135.709 46.641 134.915 46.212 134.537 46.8066C133.879 47.8453 132.962 48.681 131.884 49.2255C130.646 49.8464 129.324 49.6789 128.923 48.6494C128.36 47.1968 129.531 45.0233 132.205 44.0005C136.066 42.5352 140.107 43.5045 143.995 44.2531C144.05 44.2531 144.257 44.3708 144.074 44.4686C143.378 44.8577 142.693 45.1741 141.625 46.1158C140.859 46.7878 139.857 47.6825 139.082 48.657C138.312 49.6175 137.767 50.4742 137.045 51.4239C136.944 51.5612 136.82 51.5549 136.822 51.5549C135.063 51.8594 133.341 52.0633 131.764 53.1871C131.438 53.4177 131.296 53.8271 131.494 54.1404C131.672 54.4181 132.078 54.4476 132.36 54.2373C133.34 53.4863 134.349 53.1328 135.505 53.1C135.556 53.1032 135.58 53.1116 135.594 53.1435C135.603 53.1615 135.598 53.1993 135.577 53.2273C133.844 55.6906 133.411 56.2473 132.107 57.7745C131.441 58.5594 130.785 59.2219 130.052 59.9114C127.093 62.7291 123.91 62.6804 122.768 60.9138C122.086 59.8536 122.176 58.7406 122.623 57.8171C123.174 56.6862 124.286 55.8574 125.211 55.3733C125.555 55.1938 125.654 54.7436 125.31 54.3334C125.091 54.066 124.561 54.0185 124.166 54.0927C122.954 54.3222 121.522 55.2613 120.676 56.3914C119.722 57.6596 119.245 59.1992 119.405 60.927C119.693 64.0448 122.197 65.8458 125.041 65.825C127.304 65.8069 129.435 65.1042 131.999 62.4361C134.39 59.9476 136.568 56.2305 138.607 52.7835C138.671 52.6734 138.717 52.6143 139.027 52.5748C140.306 52.4108 142.195 52.2241 143.405 52.1523C143.674 52.1371 143.729 52.1402 143.837 52.2779C144.152 52.6857 144.626 53.0318 145.005 53.2425C145.19 53.3455 145.278 53.3969 145.424 53.3993C145.603 53.4032 145.742 53.3044 145.833 53.1998C145.961 53.0554 145.996 52.8664 145.927 52.7447C145.855 52.617 145.01 52.1375 144.985 51.9436C144.967 51.8227 145.096 51.7935 145.096 51.7935C145.717 51.5939 146.362 51.1833 146.754 50.4151C147.138 49.6589 147.2 48.6497 146.497 48.0887C145.88 47.5958 144.947 47.6736 144.203 48.358C143.475 49.0224 143.234 49.9891 143.333 50.8362C143.35 50.9831 143.343 51.0325 143.148 51.0493C142.029 51.141 140.951 51.1729 139.752 51.2379C139.672 51.2439 139.646 51.1896 139.693 51.1326C141.073 48.6744 143.135 46.9239 145.415 45.2C145.566 45.0839 145.52 44.8631 145.514 44.6787C149.63 45.5953 153.608 47.3014 157.879 47.265C159.645 47.2503 161.336 46.975 162.952 46.0663C164.373 45.2718 164.95 44.5368 164.993 43.773C165.026 43.2451 164.667 42.9114 164.157 43.0251C159.842 44.0411 155.726 44.0299 151.433 43.4975C146.529 42.8875 141.824 41.6318 136.944 41.6476ZM145.557 48.7716C145.658 48.7772 145.752 48.8118 145.828 48.8789C146.056 49.078 145.948 49.5748 145.719 49.9188C145.468 50.2983 145.042 50.6259 144.654 50.7057C144.576 50.7205 144.508 50.6862 144.476 50.5094C144.413 50.0413 144.562 49.4144 145.05 48.9727C145.202 48.8343 145.389 48.7624 145.557 48.7716ZM180.197 48.8613C179.412 48.8613 178.383 48.8628 177.566 48.8628C177.371 48.8628 177.27 48.8871 177.178 49.0727C176.877 49.6653 173.2 55.3132 172.515 56.4102C172.4 56.577 172.259 56.5537 172.243 56.3633C172.173 55.7121 171.625 54.9635 170.76 54.6052C170.101 54.331 169.456 54.2816 168.787 54.3726C167.577 54.539 166.5 55.1935 165.552 55.9305C164.125 57.0435 162.893 58.4843 161.303 59.5497C160.435 60.1296 159.246 60.6353 158.451 59.8811C157.731 59.1972 157.812 57.6775 158.914 56.5027C159.03 56.3794 159.169 56.4823 159.147 56.5929C159.043 57.1244 159.171 57.6528 159.564 58.0236C160.045 58.4645 160.732 58.5148 161.321 58.2203C162.015 57.8679 162.423 57.1866 162.543 56.4132C162.727 55.2141 161.826 54.1563 160.699 54.0717C159.784 54.0059 158.906 54.3323 158.051 55.0562C157.622 55.4205 157.378 55.6902 157.007 56.2305C156.917 56.3638 156.778 56.3774 156.783 56.1806C156.825 54.6455 156.205 53.7816 154.967 53.7533C154.006 53.7302 152.979 54.264 152.178 54.9184C151.301 55.6407 150.534 56.5976 149.711 57.4971C149.609 57.608 149.52 57.6029 149.491 57.3878C149.466 56.3706 149.217 55.3853 148.757 54.6858C148.595 54.4424 148.253 54.3218 147.965 54.4862C147.833 54.5608 147.371 54.7784 147.035 55.0557C146.868 55.1966 146.803 55.4004 146.877 55.6618C147.32 57.181 147.222 58.9089 146.621 60.3686C146.069 61.7046 144.995 62.9107 143.733 63.3185C142.902 63.5886 142.038 63.4565 141.503 62.7011C140.769 61.6588 141.066 59.8463 142.16 58.3407C143.126 57.0159 144.523 56.1738 145.918 55.6315C146.082 55.5668 146.115 55.4593 146.069 55.3164C145.993 55.081 145.872 54.7615 145.823 54.6151C145.695 54.2667 145.337 54.2097 144.9 54.2587C143.887 54.3797 142.974 54.7352 142.072 55.2304C139.708 56.5273 138.524 59.0374 138.004 60.3806C137.755 61.025 137.541 61.4281 137.264 61.7849C136.892 62.2649 136.424 62.7015 135.569 63.4713C135.492 63.5419 135.434 63.6891 135.499 63.8256C135.586 64.0111 136.031 64.6544 136.157 64.7119C136.296 64.7821 136.457 64.6841 136.522 64.6362C137.12 64.2208 137.836 63.5619 138.187 63.115C138.309 62.9621 138.436 63.0264 138.501 63.2587C138.828 64.4542 139.684 65.4302 140.868 65.8384C143.035 66.5874 145.282 65.5034 146.978 63.6163C148.056 62.4171 148.445 61.6456 148.859 61.1213C149.559 60.2318 150.94 58.2422 152.585 56.9649C153.189 56.494 153.903 56.1348 154.262 56.373C154.55 56.5646 154.643 57.0094 154.181 57.8714C152.504 61.0107 150.035 64.6992 149.582 65.5942C149.5 65.7495 149.572 65.8712 149.73 65.8712C150.608 65.8672 151.479 65.8691 152.275 65.8691C152.408 65.8627 152.467 65.8009 152.534 65.7048C153.821 63.6397 155.033 61.6732 156.331 59.6409C156.404 59.5212 156.471 59.614 156.474 59.6662C156.501 60.1375 156.614 60.7829 156.887 61.2066C157.378 61.9896 158.073 62.3259 158.845 62.3311C159.459 62.3383 159.769 62.2426 160.431 61.9892C160.894 61.8111 161.332 61.57 161.734 61.2724C161.928 61.1348 161.962 61.3656 161.957 61.4011C161.659 63.0408 162.027 64.9832 163.617 65.7889C165.52 66.7506 167.61 65.3991 168.813 64.1792C168.931 64.0615 169.057 64.0739 169.069 64.3268C169.095 64.7929 169.3 65.3457 169.676 65.7328C170.684 66.7695 172.718 66.3588 174.759 64.7391C176.07 63.7027 177.441 62.2379 178.68 60.6868C178.726 60.6269 178.76 60.5299 178.671 60.4325C178.482 60.2302 178.21 59.9987 178.023 59.8203C177.937 59.7461 177.812 59.7673 177.74 59.8236C176.47 61.061 175.328 62.4725 173.675 63.6398C173.118 64.038 172.231 64.3597 171.832 63.8066C171.677 63.5919 171.694 63.2945 171.847 62.9046C172.33 61.6731 179.955 49.7743 180.35 49.0735L180.351 49.0727C180.419 48.9506 180.347 48.8613 180.197 48.8613ZM169.513 56.3002C169.712 56.2985 169.899 56.3378 170.069 56.4217C171.009 56.881 170.709 57.9956 170.289 58.8707C170.274 58.8981 170.266 58.9282 170.263 58.9591C170.26 58.9901 170.263 59.0214 170.272 59.0511C170.287 59.1421 170.403 59.2303 170.516 59.2722C170.556 59.2873 170.579 59.3168 170.534 59.4126C170.209 60.1249 169.911 60.5356 169.505 61.1541C169.131 61.7259 168.71 62.1717 168.2 62.6011C167.431 63.2535 166.363 63.9634 165.48 63.4861C165.088 63.277 164.918 62.7147 164.926 62.2594C164.947 60.9784 165.501 59.664 166.527 58.3719C167.544 57.0892 168.647 56.3081 169.513 56.3002Z" fill="white"/>
</g>
<defs>
<clipPath id="clip0_3392_5674">
<rect width="102" height="38" fill="white" transform="translate(98.5 36)"/>
</clipPath>
</defs>
</svg>
