<svg width="102" height="38" viewBox="0 0 102 38" fill="none" xmlns="http://www.w3.org/2000/svg">
<g clip-path="url(#clip0_3392_5675)">
<path d="M51 0C22.8222 0 0 8.4926 0 19.0004C0 29.505 22.8237 38 51 38C79.1797 38 102 29.5046 102 19.0004C102 8.4922 79.1801 0 51 0Z" fill="#84858C"/>
<path d="M51.2592 36.3334C24.1249 36.3334 2.12891 28.4877 2.12891 18.8087C2.12891 9.12854 24.1253 1.2832 51.2592 1.2832C78.3907 1.2832 100.386 9.12814 100.386 18.8087C100.386 28.4873 78.3899 36.3334 51.2592 36.3334ZM51.2592 2.80159C25.0783 2.80159 3.85602 9.96695 3.85602 18.8087C3.85602 27.6509 25.0776 34.817 51.2592 34.817C77.4396 34.817 98.6584 27.6505 98.6584 18.8087C98.6584 9.96695 77.438 2.80159 51.2592 2.80159Z" fill="white"/>
<path d="M38.4435 5.64761C37.7463 5.64988 37.0455 5.67796 36.34 5.73772C31.654 6.14196 27.1938 8.84602 27.1857 12.9515C27.1806 15.0333 28.6247 16.7202 30.8622 16.646C33.4915 16.5546 35.6499 14.3957 36.7798 11.6738C37.2085 10.641 36.4146 10.212 36.0367 10.8066C35.3787 11.8453 34.4621 12.681 33.3836 13.2255C32.1464 13.8464 30.8241 13.6789 30.4232 12.6494C29.8595 11.1968 31.0311 9.02326 33.7047 8.00049C37.5664 6.53518 41.6069 7.50449 45.4949 8.25311C45.5504 8.25311 45.7575 8.37083 45.5743 8.4686C44.8781 8.85767 44.1926 9.17406 43.1248 10.1158C42.3591 10.7878 41.3568 11.6825 40.5815 12.657C39.812 13.6175 39.2666 14.4742 38.5449 15.4239C38.4443 15.5612 38.3204 15.5549 38.322 15.5549C36.5629 15.8594 34.8408 16.0633 33.264 17.1871C32.9379 17.4177 32.7963 17.8271 32.9941 18.1404C33.1718 18.4181 33.5783 18.4476 33.8605 18.2373C34.8401 17.4863 35.8486 17.1328 37.0052 17.1C37.0557 17.1032 37.0799 17.1116 37.0942 17.1435C37.1031 17.1615 37.0977 17.1993 37.0769 17.2273C35.3444 19.6906 34.9105 20.2473 33.6071 21.7745C32.9405 22.5594 32.2848 23.2219 31.5523 23.9114C28.5931 26.7291 25.4102 26.6804 24.2683 24.9138C23.5859 23.8536 23.6759 22.7406 24.1231 21.8171C24.6736 20.6862 25.7861 19.8574 26.7113 19.3733C27.0548 19.1938 27.1536 18.7436 26.8097 18.3334C26.5911 18.066 26.061 18.0185 25.6662 18.0927C24.4542 18.3222 23.0219 19.2613 22.1757 20.3914C21.2219 21.6596 20.7455 23.1992 20.9055 24.927C21.1927 28.0448 23.6974 29.8458 26.541 29.825C28.8037 29.8069 30.935 29.1042 33.4995 26.4361C35.8901 23.9476 38.068 20.2305 40.1074 16.7835C40.1714 16.6734 40.2168 16.6143 40.5267 16.5748C41.8059 16.4108 43.6947 16.2241 44.9052 16.1523C45.1743 16.1371 45.2289 16.1402 45.3369 16.2779C45.6522 16.6857 46.1259 17.0318 46.5053 17.2425C46.6903 17.3455 46.7783 17.3969 46.9237 17.3993C47.1029 17.4032 47.2424 17.3044 47.3327 17.1998C47.461 17.0554 47.4965 16.8664 47.4271 16.7447C47.3546 16.617 46.5104 16.1375 46.4854 15.9436C46.4669 15.8227 46.5959 15.7935 46.5959 15.7935C47.2166 15.5939 47.8623 15.1833 48.2536 14.4151C48.638 13.6589 48.7 12.6497 47.9968 12.0887C47.3796 11.5958 46.4471 11.6736 45.703 12.358C44.9752 13.0224 44.7343 13.9891 44.8327 14.8362C44.8504 14.9831 44.843 15.0325 44.6476 15.0493C43.5288 15.141 42.4509 15.1729 41.2519 15.2379C41.1717 15.2439 41.1463 15.1896 41.1929 15.1326C42.5735 12.6744 44.6347 10.9239 46.9147 9.20003C47.0658 9.08391 47.0197 8.86309 47.0135 8.67873C51.13 9.59535 55.1083 11.3014 59.379 11.265C61.1451 11.2503 62.8358 10.975 64.4519 10.0663C65.8733 9.27182 66.4501 8.53682 66.4925 7.77304C66.5257 7.2451 66.1674 6.91138 65.6574 7.02511C61.3423 8.04109 57.2258 8.02988 52.9327 7.49754C48.0293 6.88754 43.3242 5.63178 38.4435 5.64761ZM47.0569 12.7716C47.1578 12.7772 47.2521 12.8118 47.3285 12.8789C47.5559 13.078 47.4483 13.5748 47.2185 13.9188C46.9675 14.2983 46.5419 14.6259 46.1537 14.7057C46.0758 14.7205 46.0084 14.6862 45.9764 14.5094C45.9131 14.0413 46.0617 13.4144 46.5497 12.9727C46.7025 12.8343 46.8888 12.7624 47.0569 12.7716ZM81.6969 12.8613C80.9124 12.8613 79.8835 12.8628 79.0658 12.8628C78.8711 12.8628 78.7705 12.8871 78.6783 13.0727C78.3769 13.6653 74.6997 19.3132 74.015 20.4102C73.9001 20.577 73.7591 20.5537 73.7429 20.3633C73.6735 19.7121 73.1248 18.9635 72.2601 18.6052C71.6009 18.331 70.9563 18.2816 70.2866 18.3726C69.0773 18.539 67.9999 19.1935 67.0523 19.9305C65.6248 21.0435 64.3932 22.4843 62.803 23.5497C61.9348 24.1296 60.7463 24.6353 59.951 23.8811C59.2312 23.1972 59.3121 21.6775 60.4136 20.5027C60.5296 20.3794 60.6688 20.4823 60.6468 20.5929C60.5428 21.1244 60.6708 21.6528 61.0644 22.0236C61.5448 22.4645 62.2324 22.5148 62.8207 22.2203C63.5154 21.8679 63.9234 21.1866 64.0429 20.4132C64.2268 19.2141 63.3258 18.1563 62.1993 18.0717C61.2837 18.0059 60.406 18.3323 59.5509 19.0562C59.1219 19.4205 58.8777 19.6902 58.5072 20.2305C58.4166 20.3638 58.2779 20.3774 58.2825 20.1806C58.3253 18.6455 57.7053 17.7816 56.4666 17.7533C55.5059 17.7302 54.4787 18.264 53.6784 18.9184C52.8009 19.6407 52.0337 20.5976 51.2114 21.4971C51.1093 21.608 51.0198 21.6029 50.9913 21.3878C50.9662 20.3706 50.7167 19.3853 50.2572 18.6858C50.0949 18.4424 49.7529 18.3218 49.4653 18.4862C49.3327 18.5608 48.8705 18.7784 48.5347 19.0557C48.3678 19.1966 48.3033 19.4004 48.3766 19.6618C48.8199 21.181 48.7224 22.9089 48.121 24.3686C47.5685 25.7046 46.4949 26.9107 45.2335 27.3185C44.4023 27.5886 43.5379 27.4565 43.0032 26.7011C42.2688 25.6588 42.5658 23.8463 43.6599 22.3407C44.6263 21.0159 46.0231 20.1738 47.4175 19.6315C47.5817 19.5668 47.6152 19.4593 47.5689 19.3164C47.493 19.081 47.3724 18.7615 47.3227 18.6151C47.1951 18.2667 46.8369 18.2097 46.4001 18.2587C45.3874 18.3797 44.4741 18.7352 43.5716 19.2304C41.2084 20.5273 40.024 23.0374 39.5044 24.3806C39.2545 25.025 39.0407 25.4281 38.7643 25.7849C38.3918 26.2649 37.9242 26.7015 37.0691 27.4713C36.992 27.5419 36.9342 27.6891 36.999 27.8256C37.0865 28.0111 37.5309 28.6544 37.6566 28.7119C37.7958 28.7821 37.9572 28.6841 38.022 28.6362C38.6203 28.2208 39.3362 27.5619 39.6866 27.115C39.8092 26.9621 39.9359 27.0264 40.001 27.2587C40.3279 28.4542 41.184 29.4302 42.3679 29.8384C44.5345 30.5874 46.7821 29.5034 48.4784 27.6163C49.5563 26.4171 49.9453 25.6456 50.3586 25.1213C51.0587 24.2318 52.4404 22.2422 54.0854 20.9649C54.6887 20.494 55.4031 20.1348 55.7624 20.373C56.0504 20.5646 56.1433 21.0094 55.6807 21.8714C54.0037 25.0107 51.5347 28.6992 51.0821 29.5942C50.9996 29.7495 51.0717 29.8712 51.2302 29.8712C52.108 29.8672 52.9785 29.8691 53.7754 29.8691C53.9076 29.8627 53.9675 29.8009 54.0338 29.7048C55.321 27.6397 56.5327 25.6732 57.8311 23.6409C57.9043 23.5212 57.971 23.614 57.9737 23.6662C58.0007 24.1375 58.1136 24.7829 58.3865 25.2066C58.8777 25.9896 59.5732 26.3259 60.345 26.3311C60.9588 26.3383 61.2691 26.2426 61.931 25.9892C62.3941 25.8111 62.8323 25.57 63.2341 25.2724C63.428 25.1348 63.4618 25.3656 63.4568 25.4011C63.1592 27.0408 63.527 28.9832 65.1169 29.7889C67.0198 30.7506 69.1101 29.3991 70.3129 28.1792C70.4305 28.0615 70.5574 28.0739 70.5693 28.3268C70.5948 28.7929 70.7999 29.3457 71.1761 29.7328C72.1839 30.7695 74.2179 30.3588 76.2592 28.7391C77.57 27.7027 78.9412 26.2379 80.1798 24.6868C80.2257 24.6269 80.2599 24.5299 80.1713 24.4325C79.9824 24.2302 79.7096 23.9987 79.5226 23.8203C79.4374 23.7461 79.312 23.7673 79.2399 23.8236C77.9704 25.061 76.8278 26.4725 75.1755 27.6398C74.6184 28.038 73.7309 28.3597 73.3319 27.8066C73.1765 27.5919 73.1944 27.2945 73.3474 26.9046C73.8297 25.6731 81.4548 13.7743 81.8503 13.0735L81.8511 13.0727C81.9189 12.9506 81.8472 12.8613 81.6969 12.8613ZM71.0126 20.3002C71.2122 20.2985 71.3992 20.3378 71.5694 20.4217C72.5085 20.881 72.2086 21.9956 71.7887 22.8707C71.7745 22.8981 71.7656 22.9282 71.7627 22.9591C71.7598 22.9901 71.7629 23.0214 71.7718 23.0511C71.7872 23.1421 71.9027 23.2303 72.0165 23.2722C72.0562 23.2873 72.0787 23.3168 72.0336 23.4126C71.709 24.1249 71.4114 24.5356 71.0046 25.1541C70.6315 25.7259 70.2104 26.1717 69.7 26.6011C68.9309 27.2535 67.8631 27.9634 66.9802 27.4861C66.5878 27.277 66.4185 26.7147 66.4262 26.2594C66.4466 24.9784 67.0007 23.664 68.0269 22.3719C69.0437 21.0892 70.1474 20.3081 71.0126 20.3002Z" fill="white"/>
</g>
<defs>
<clipPath id="clip0_3392_5675">
<rect width="102" height="38" fill="white"/>
</clipPath>
</defs>
</svg>
