<svg width="299" height="110" viewBox="0 0 299 110" fill="none" xmlns="http://www.w3.org/2000/svg">
<path d="M156.356 48.8792H159.845V59.1136C159.845 64.3085 157.13 67.2882 152.401 67.2882C147.721 67.2882 145.031 64.3604 145.031 59.2561V48.8921H148.519V59.1395C148.519 62.171 149.932 63.7903 152.45 63.7903C154.968 63.7903 156.356 62.2098 156.356 59.269V48.8792ZM136.703 56.1858H128.817V48.8792H125.328V67.0161H128.817V59.6447H136.69V67.0161H140.179V48.8792H136.69V56.1858H136.703ZM224.062 48.8792V66.9902H227.502V48.8792H224.062ZM210.366 59.2043H216.717V55.9008H210.366V52.1827H219.579V48.8921H206.927V67.0032H219.91V63.6996H210.366V59.2043ZM196.683 61.3418L192.776 48.8662H189.927L186.021 61.3418L182.225 48.8792H178.515L184.51 67.0032H187.396L191.302 55.0975L195.209 67.0032H198.12L204.102 48.8792H200.478L196.683 61.3418ZM172.312 48.9828L179.817 67.0032H176.157L174.609 63.2333H166.736L166.625 63.4924L165.176 67.0032H161.613L169.192 48.8792H172.239L172.312 48.9828ZM173.147 59.5281L170.666 53.4523L168.197 59.5281L168.025 59.9427H173.307L173.147 59.5281Z" fill="#84858C"/>
<path d="M90.982 65.0864C91.0312 65.0475 91.0435 64.9698 91.0189 64.905C87.6318 57.227 83.4064 49.9923 78.4284 43.3479C78.4284 43.3479 74.4731 47.3122 74.7556 51.2893C74.8218 52.2063 75.0587 53.1004 75.4529 53.9207C75.847 54.741 76.3906 55.4712 77.0526 56.0697C80.5043 59.6194 88.857 64.1018 90.7978 65.1252C90.8592 65.1511 90.9329 65.1382 90.982 65.0864ZM89.6923 68.1178C89.6677 68.0401 89.594 67.9883 89.508 67.9883L75.6032 68.4935C77.1141 71.3307 79.6567 73.533 82.2977 72.8593C84.1279 72.38 88.2551 69.3356 89.6186 68.2992C89.7291 68.2085 89.6923 68.1308 89.6923 68.1178ZM89.9011 66.8094C89.9748 66.6928 89.852 66.5891 89.852 66.5891C83.7471 62.2363 71.9059 55.5515 71.9059 55.5515C71.5134 56.8203 71.4036 58.1674 71.585 59.4882C71.7665 60.8089 72.2342 62.0678 72.952 63.1669C73.6697 64.2661 74.6181 65.1758 75.7234 65.8255C76.8287 66.4752 78.0612 66.8474 79.3251 66.913C79.5339 66.9519 87.5918 66.913 89.7537 66.9001C89.8151 66.8871 89.8642 66.8612 89.9011 66.8094ZM90.8224 37.013C90.2205 37.0648 88.5868 37.4664 88.5868 37.4664C84.9017 38.4639 84.0296 42.0006 84.0296 42.0006C83.354 44.2159 84.0419 46.6644 84.0419 46.6644C85.2702 52.4164 91.3137 61.8865 92.6157 63.8686C92.7017 63.9722 92.7754 63.9334 92.7754 63.9334C92.8491 63.9075 92.9105 63.8427 92.9105 63.752C94.925 42.6095 90.8224 37.013 90.8224 37.013ZM95.4286 63.9075C95.5023 63.9334 95.5883 63.9075 95.6252 63.8297C96.9641 61.7958 102.971 52.3775 104.199 46.6514C104.199 46.6514 104.862 43.8791 104.224 41.9877C104.224 41.9877 103.315 38.3991 99.6296 37.4534C99.6296 37.4534 98.5732 37.1684 97.4431 37C97.4431 37 93.3159 42.5965 95.3304 63.739C95.3181 63.8168 95.3672 63.8815 95.4286 63.9075ZM98.7206 68.0012C98.6879 68.0082 98.6568 68.0221 98.6294 68.0422C98.6019 68.0622 98.5786 68.088 98.5609 68.1178C98.5486 68.1956 98.5609 68.2603 98.61 68.3121C99.9367 69.3226 103.978 72.3023 105.919 72.8723C105.919 72.8723 109.518 74.1678 112.638 68.5065L98.7206 68.0012ZM116.347 55.5256C116.347 55.5256 104.531 62.2233 98.4135 66.5762C98.3521 66.628 98.3152 66.7057 98.3398 66.7835C98.3398 66.7835 98.4012 66.9001 98.4872 66.9001C100.674 66.9001 108.953 66.913 109.174 66.8741C109.997 66.8094 110.807 66.615 111.569 66.2912C111.569 66.2912 114.517 65.3066 116.04 61.7699C116.04 61.7699 117.404 58.8939 116.347 55.5256ZM97.2957 65.0864C97.3448 65.1252 97.4186 65.1382 97.48 65.0993C99.4699 64.05 107.761 59.6064 111.188 56.0697C111.188 56.0697 113.362 54.2301 113.473 51.2634C113.719 47.1567 109.8 43.3479 109.8 43.3479C109.8 43.3479 102.553 52.6107 97.2343 64.8532C97.2258 64.8944 97.2269 64.9372 97.2376 64.9778C97.2483 65.0184 97.2683 65.0557 97.2957 65.0864Z" fill="#84858C"/>
</svg>
