<svg width="299" height="110" viewBox="0 0 299 110" fill="none" xmlns="http://www.w3.org/2000/svg">
<g clip-path="url(#clip0_3392_5662)">
<path d="M82.066 64C79.87 64 78.052 63.5243 76.618 62.5675C75.184 61.6162 74.5 60.2486 74.5 58.5459C74.5 58.2054 74.578 57.7297 74.65 57.1837C74.878 55.9567 75.256 54.5243 75.712 52.8216C76.996 48.2486 80.254 45.9297 85.552 45.9297C86.992 45.9297 88.276 46.1351 89.41 46.6108C90.544 47.0216 91.456 47.6324 92.134 48.5189C92.818 49.3351 93.118 50.3621 93.118 51.5189C93.118 51.8594 93.04 52.3351 92.968 52.8162C92.668 54.3135 92.362 55.7459 91.984 57.1783C91.3 59.4973 90.166 61.2 88.576 62.2918C86.986 63.3837 84.79 64 82.144 64H82.066ZM82.444 60.3837C83.506 60.3837 84.412 60.1135 85.09 59.5675C85.846 59.0216 86.374 58.2054 86.68 57.0432C87.136 55.4756 87.436 54.1135 87.664 52.9513C87.742 52.6108 87.742 52.2702 87.742 51.8594C87.742 50.3621 86.836 49.6108 85.096 49.6108C84.034 49.6108 83.128 49.881 82.372 50.427C81.616 50.9729 81.088 51.7891 80.782 52.9513C80.482 54.0432 80.098 55.4054 79.798 57.0432C79.72 57.3837 79.72 57.7297 79.72 58.0702C79.72 59.6378 80.632 60.3837 82.444 60.3837Z" fill="#84858C"/>
<path d="M95.9191 63.7942C95.6911 63.7942 95.5411 63.724 95.4631 63.5888C95.3851 63.4537 95.3131 63.3186 95.3851 63.1131L99.2431 46.8158C99.3211 46.6104 99.3931 46.4753 99.5431 46.3402C99.6931 46.205 99.9211 46.1348 100.071 46.1348H107.565C109.611 46.1348 111.273 46.5456 112.557 47.2915C113.841 48.0375 114.459 49.205 114.459 50.6375C114.459 51.0483 114.381 51.4537 114.309 51.9348C113.853 53.8429 112.869 55.2753 111.507 56.1618C110.067 57.0483 108.177 57.524 105.753 57.524H101.967L100.683 62.978C100.683 63.1834 100.533 63.3186 100.383 63.4537C100.233 63.5888 100.005 63.6591 99.8551 63.6591H96.0691L95.9191 63.7942ZM105.831 54.2483C106.587 54.2483 107.271 54.0429 107.877 53.7023C108.483 53.2915 108.861 52.7456 109.089 52.0645C109.167 51.7942 109.167 51.5185 109.167 51.3131C109.167 50.8375 109.017 50.4969 108.711 50.2213C108.405 49.9456 107.877 49.8104 107.049 49.8104H103.719L102.657 54.3077H105.909L105.831 54.2483Z" fill="#84858C"/>
<path d="M120.742 63.7942C120.514 63.7942 120.364 63.724 120.286 63.5888C120.208 63.4537 120.136 63.3186 120.208 63.1131L123.31 50.1564H118.318C118.09 50.1564 117.94 50.0861 117.862 49.951C117.784 49.8158 117.712 49.6807 117.784 49.4753L118.468 46.8158C118.546 46.6104 118.618 46.4753 118.768 46.3402C118.918 46.205 119.146 46.1348 119.296 46.1348H134.356C134.584 46.1348 134.734 46.205 134.812 46.3402C134.89 46.4104 134.89 46.5456 134.89 46.6104C134.89 46.6753 134.89 46.6807 134.89 46.7456L134.206 49.405C134.206 49.6104 134.056 49.7456 133.906 49.8807C133.756 50.0158 133.606 50.0861 133.378 50.0861H128.386L125.284 63.0429C125.206 63.2483 125.134 63.3834 124.984 63.5186C124.834 63.6537 124.606 63.724 124.456 63.724H120.748V63.7942H120.742Z" fill="#84858C"/>
<path d="M135.575 63.7942C135.347 63.7942 135.197 63.724 135.119 63.5888C135.041 63.4537 134.969 63.3186 135.041 63.1131L138.977 46.8158C138.977 46.6104 139.127 46.4753 139.277 46.3402C139.427 46.205 139.655 46.1348 139.805 46.1348H143.591C143.819 46.1348 143.969 46.205 144.047 46.3402C144.125 46.4104 144.125 46.5456 144.125 46.6104C144.125 46.6753 144.125 46.6807 144.125 46.7456L140.267 63.0429C140.267 63.2483 140.117 63.3834 139.967 63.5186C139.817 63.6537 139.589 63.724 139.439 63.724H135.653L135.575 63.7942Z" fill="#84858C"/>
<path d="M146.321 63.7942C146.093 63.7942 145.943 63.7239 145.865 63.5888C145.787 63.4536 145.715 63.3185 145.787 63.1131L149.645 46.8158C149.645 46.6104 149.795 46.4753 149.945 46.3401C150.095 46.205 150.323 46.1347 150.473 46.1347H153.503C153.959 46.1347 154.259 46.3401 154.337 46.6807L157.367 54.5888L164.177 46.6807C164.255 46.5455 164.405 46.4104 164.555 46.2699C164.705 46.1293 164.933 46.0645 165.239 46.0645H168.269C168.497 46.0645 168.647 46.1347 168.725 46.2699C168.803 46.3401 168.803 46.4753 168.803 46.5401C168.803 46.605 168.803 46.6104 168.803 46.6753L164.945 62.9726C164.945 63.178 164.795 63.3131 164.645 63.4482C164.495 63.5834 164.267 63.6536 164.117 63.6536H160.709C160.481 63.6536 160.331 63.5834 160.253 63.4482C160.175 63.3131 160.103 63.178 160.175 62.9726L162.371 53.7672L158.057 58.8807C157.907 59.0861 157.679 59.2212 157.529 59.2915C157.379 59.3617 157.151 59.4266 156.923 59.4266H155.483C155.105 59.4266 154.799 59.2212 154.649 58.8807L152.681 53.5672L150.413 63.0428C150.335 63.2482 150.263 63.3834 150.113 63.5185C149.963 63.6536 149.735 63.7239 149.585 63.7239H146.255L146.321 63.7942Z" fill="#84858C"/>
<path d="M171.071 63.7942C170.843 63.7942 170.693 63.724 170.615 63.5888C170.537 63.4537 170.465 63.3186 170.537 63.1131L174.473 46.8158C174.551 46.6104 174.623 46.4753 174.773 46.3402C174.923 46.205 175.151 46.1348 175.301 46.1348H179.087C179.315 46.1348 179.465 46.205 179.543 46.3402C179.621 46.4104 179.621 46.5456 179.621 46.6104C179.621 46.6753 179.621 46.6807 179.621 46.7456L175.763 63.0429C175.763 63.2483 175.613 63.3834 175.463 63.5186C175.313 63.6537 175.085 63.724 174.935 63.724H171.149L171.071 63.7942Z" fill="#84858C"/>
<path d="M188.628 64.0004C186.966 64.0004 185.598 63.795 184.392 63.3842C183.258 62.9734 182.346 62.4274 181.746 61.8166C181.14 61.1355 180.84 60.3842 180.84 59.568C180.84 59.4328 180.84 59.2274 180.918 58.9518C180.996 58.8166 181.068 58.6815 181.146 58.541C181.296 58.4707 181.446 58.4058 181.602 58.4058H185.16C185.388 58.4058 185.538 58.4058 185.688 58.4761C185.838 58.5464 185.916 58.6815 186.066 58.8166C186.216 59.2274 186.522 59.6328 186.972 59.9085C187.422 60.1842 188.106 60.3193 188.94 60.3193C190.002 60.3193 190.83 60.1842 191.514 59.8437C192.198 59.5734 192.576 59.1626 192.726 58.6166C192.726 58.5464 192.726 58.4815 192.726 58.3464C192.726 57.9355 192.426 57.595 191.892 57.3896C191.286 57.1193 190.23 56.8437 188.712 56.5031C186.894 56.1626 185.532 55.6166 184.626 54.9355C183.72 54.1842 183.186 53.2977 183.186 52.141C183.186 51.7301 183.264 51.3247 183.336 50.9139C183.714 49.3464 184.62 48.1193 186.138 47.2328C187.656 46.3464 189.546 45.9355 191.892 45.9355C193.332 45.9355 194.538 46.141 195.678 46.6166C196.818 47.0923 197.646 47.6382 198.252 48.3193C198.858 49.0004 199.158 49.6815 199.158 50.3626C199.158 50.568 199.158 50.7031 199.158 50.7734C199.158 50.9085 199.008 51.0437 198.93 51.1842C198.852 51.2545 198.702 51.3193 198.474 51.3193H194.682C194.304 51.3193 193.998 51.1842 193.848 50.9085C193.848 50.4977 193.62 50.2274 193.164 49.9518C192.708 49.6761 192.18 49.541 191.502 49.541C190.668 49.541 189.99 49.6761 189.456 49.9518C188.922 50.2274 188.622 50.6328 188.472 51.1085C188.472 51.1788 188.472 51.3139 188.472 51.4491C188.472 51.8599 188.7 52.2004 189.228 52.4707C189.756 52.741 190.74 52.9464 192.03 53.222C194.148 53.5626 195.66 54.1085 196.572 54.7896C197.556 55.4707 198.012 56.3572 198.012 57.5193C198.012 57.9301 197.934 58.3355 197.862 58.7464C197.484 60.4491 196.422 61.7464 194.832 62.6328C193.242 63.5193 191.124 63.9301 188.55 63.9301L188.628 64.0004Z" fill="#84858C"/>
<path d="M201.872 63.7942C201.644 63.7942 201.494 63.7239 201.416 63.5888C201.338 63.4536 201.266 63.3185 201.338 63.1131L205.196 46.8158C205.196 46.6104 205.346 46.4753 205.496 46.3401C205.646 46.205 205.874 46.1347 206.024 46.1347H209.054C209.51 46.1347 209.81 46.3401 209.888 46.6807L212.918 54.5888L219.728 46.6807C219.806 46.5455 219.956 46.4104 220.106 46.2699C220.256 46.1293 220.484 46.0645 220.79 46.0645H223.82C224.048 46.0645 224.198 46.1347 224.276 46.2699C224.354 46.3401 224.354 46.4753 224.354 46.5401C224.354 46.605 224.354 46.6104 224.354 46.6753L220.496 62.9726C220.418 63.178 220.346 63.3131 220.196 63.4482C220.046 63.5834 219.818 63.6536 219.668 63.6536H216.26C216.032 63.6536 215.882 63.5834 215.804 63.4482C215.726 63.3131 215.654 63.178 215.726 62.9726L217.922 53.7672L213.608 58.8807C213.458 59.0861 213.23 59.2212 213.08 59.2915C212.93 59.3617 212.702 59.4266 212.474 59.4266H211.034C210.656 59.4266 210.35 59.2212 210.2 58.8807L208.232 53.5617L205.958 63.0428C205.88 63.2482 205.808 63.3834 205.658 63.5185C205.508 63.6536 205.28 63.7239 205.13 63.7239H201.8L201.872 63.7942Z" fill="#84858C"/>
</g>
<defs>
<clipPath id="clip0_3392_5662">
<rect width="150" height="18" fill="white" transform="translate(74.5 46)"/>
</clipPath>
</defs>
</svg>
