<svg width="150" height="18" viewBox="0 0 150 18" fill="none" xmlns="http://www.w3.org/2000/svg">
<g clip-path="url(#clip0_3392_5663)">
<path d="M7.566 18C5.37 18 3.552 17.5243 2.118 16.5675C0.684 15.6162 0 14.2486 0 12.5459C0 12.2054 0.078 11.7297 0.15 11.1837C0.378 9.95671 0.756 8.52428 1.212 6.82158C2.496 2.24861 5.754 -0.0703125 11.052 -0.0703125C12.492 -0.0703125 13.776 0.135093 14.91 0.610769C16.044 1.02158 16.956 1.63239 17.634 2.51888C18.318 3.33509 18.618 4.36212 18.618 5.51888C18.618 5.85942 18.54 6.33509 18.468 6.81617C18.168 8.31347 17.862 9.7459 17.484 11.1783C16.8 13.4973 15.666 15.2 14.076 16.2918C12.486 17.3837 10.29 18 7.644 18H7.566ZM7.944 14.3837C9.006 14.3837 9.912 14.1135 10.59 13.5675C11.346 13.0216 11.874 12.2054 12.18 11.0432C12.636 9.47563 12.936 8.11347 13.164 6.95131C13.242 6.61077 13.242 6.27023 13.242 5.85942C13.242 4.36212 12.336 3.61077 10.596 3.61077C9.534 3.61077 8.628 3.88104 7.872 4.42698C7.116 4.97293 6.588 5.78915 6.282 6.95131C5.982 8.0432 5.598 9.40536 5.298 11.0432C5.22 11.3837 5.22 11.7297 5.22 12.0702C5.22 13.6378 6.132 14.3837 7.944 14.3837Z" fill="#84858C"/>
<path d="M21.4191 17.7942C21.1911 17.7942 21.0411 17.724 20.9631 17.5888C20.8851 17.4537 20.8131 17.3186 20.8851 17.1131L24.7431 0.815847C24.8211 0.610441 24.8931 0.475306 25.0431 0.340171C25.1931 0.205036 25.4211 0.134766 25.5711 0.134766H33.0651C35.1111 0.134766 36.7731 0.545576 38.0571 1.29152C39.3411 2.03747 39.9591 3.20504 39.9591 4.63747C39.9591 5.04828 39.8811 5.45368 39.8091 5.93477C39.3531 7.84287 38.3691 9.27531 37.0071 10.1618C35.5671 11.0483 33.6771 11.524 31.2531 11.524H27.4671L26.1831 16.978C26.1831 17.1834 26.0331 17.3186 25.8831 17.4537C25.7331 17.5888 25.5051 17.6591 25.3551 17.6591H21.5691L21.4191 17.7942ZM31.3311 8.24828C32.0871 8.24828 32.7711 8.04287 33.3771 7.70233C33.9831 7.29152 34.3611 6.74558 34.5891 6.0645C34.6671 5.79423 34.6671 5.51855 34.6671 5.31314C34.6671 4.83747 34.5171 4.49693 34.2111 4.22125C33.9051 3.94558 33.3771 3.81044 32.5491 3.81044H29.2191L28.1571 8.30774H31.4091L31.3311 8.24828Z" fill="#84858C"/>
<path d="M46.2416 17.7942C46.0136 17.7942 45.8636 17.724 45.7856 17.5888C45.7076 17.4537 45.6356 17.3186 45.7076 17.1131L48.8096 4.15639H43.8176C43.5896 4.15639 43.4396 4.08612 43.3616 3.95098C43.2836 3.81585 43.2116 3.68071 43.2836 3.47531L43.9676 0.815847C44.0456 0.610441 44.1176 0.475306 44.2676 0.340171C44.4176 0.205036 44.6456 0.134766 44.7956 0.134766H59.8556C60.0836 0.134766 60.2336 0.205036 60.3116 0.340171C60.3896 0.410441 60.3896 0.545576 60.3896 0.610441C60.3896 0.675306 60.3896 0.680712 60.3896 0.745576L59.7056 3.40504C59.7056 3.61044 59.5556 3.74558 59.4056 3.88071C59.2556 4.01585 59.1056 4.08612 58.8776 4.08612H53.8856L50.7836 17.0429C50.7056 17.2483 50.6336 17.3834 50.4836 17.5186C50.3336 17.6537 50.1056 17.724 49.9556 17.724H46.2476V17.7942H46.2416Z" fill="#84858C"/>
<path d="M61.0754 17.7942C60.8474 17.7942 60.6974 17.724 60.6194 17.5888C60.5414 17.4537 60.4694 17.3186 60.5414 17.1131L64.4774 0.815847C64.4774 0.610441 64.6274 0.475306 64.7774 0.340171C64.9274 0.205036 65.1554 0.134766 65.3054 0.134766H69.0914C69.3194 0.134766 69.4694 0.205036 69.5474 0.340171C69.6254 0.410441 69.6254 0.545576 69.6254 0.610441C69.6254 0.675306 69.6254 0.680712 69.6254 0.745576L65.7674 17.0429C65.7674 17.2483 65.6174 17.3834 65.4674 17.5186C65.3174 17.6537 65.0894 17.724 64.9394 17.724H61.1534L61.0754 17.7942Z" fill="#84858C"/>
<path d="M71.8215 17.7942C71.5935 17.7942 71.4435 17.7239 71.3655 17.5888C71.2875 17.4536 71.2155 17.3185 71.2875 17.1131L75.1455 0.815804C75.1455 0.610399 75.2955 0.475264 75.4455 0.340129C75.5955 0.204994 75.8235 0.134723 75.9735 0.134723H79.0035C79.4595 0.134723 79.7595 0.340129 79.8375 0.680669L82.8675 8.58878L89.6775 0.680669C89.7555 0.545534 89.9055 0.410399 90.0555 0.269858C90.2055 0.129318 90.4335 0.0644531 90.7395 0.0644531H93.7695C93.9975 0.0644531 94.1475 0.134723 94.2255 0.269858C94.3035 0.340129 94.3035 0.475264 94.3035 0.540129C94.3035 0.604994 94.3035 0.610399 94.3035 0.675264L90.4455 16.9726C90.4455 17.178 90.2955 17.3131 90.1455 17.4482C89.9955 17.5834 89.7675 17.6536 89.6175 17.6536H86.2095C85.9815 17.6536 85.8315 17.5834 85.7535 17.4482C85.6755 17.3131 85.6035 17.178 85.6755 16.9726L87.8715 7.76715L83.5575 12.8807C83.4075 13.0861 83.1795 13.2212 83.0295 13.2915C82.8795 13.3617 82.6515 13.4266 82.4235 13.4266H80.9835C80.6055 13.4266 80.2995 13.2212 80.1495 12.8807L78.1815 7.56715L75.9135 17.0428C75.8355 17.2482 75.7635 17.3834 75.6135 17.5185C75.4635 17.6536 75.2355 17.7239 75.0855 17.7239H71.7555L71.8215 17.7942Z" fill="#84858C"/>
<path d="M96.5715 17.7942C96.3435 17.7942 96.1935 17.724 96.1155 17.5888C96.0375 17.4537 95.9655 17.3186 96.0375 17.1131L99.9735 0.815847C100.051 0.610441 100.123 0.475306 100.273 0.340171C100.423 0.205036 100.651 0.134766 100.801 0.134766H104.587C104.815 0.134766 104.965 0.205036 105.043 0.340171C105.121 0.410441 105.121 0.545576 105.121 0.610441C105.121 0.675306 105.121 0.680712 105.121 0.745576L101.263 17.0429C101.263 17.2483 101.113 17.3834 100.963 17.5186C100.813 17.6537 100.585 17.724 100.435 17.724H96.6495L96.5715 17.7942Z" fill="#84858C"/>
<path d="M114.128 18.0004C112.466 18.0004 111.098 17.795 109.892 17.3842C108.758 16.9734 107.846 16.4274 107.246 15.8166C106.64 15.1355 106.34 14.3842 106.34 13.568C106.34 13.4328 106.34 13.2274 106.418 12.9518C106.496 12.8166 106.568 12.6815 106.646 12.541C106.796 12.4707 106.946 12.4058 107.102 12.4058H110.66C110.888 12.4058 111.038 12.4058 111.188 12.4761C111.338 12.5464 111.416 12.6815 111.566 12.8166C111.716 13.2274 112.022 13.6328 112.472 13.9085C112.922 14.1842 113.606 14.3193 114.44 14.3193C115.502 14.3193 116.33 14.1842 117.014 13.8437C117.698 13.5734 118.076 13.1626 118.226 12.6166C118.226 12.5464 118.226 12.4815 118.226 12.3464C118.226 11.9355 117.926 11.595 117.392 11.3896C116.786 11.1193 115.73 10.8437 114.212 10.5031C112.394 10.1626 111.032 9.61663 110.126 8.93555C109.22 8.1842 108.686 7.29771 108.686 6.14095C108.686 5.73014 108.764 5.32474 108.836 4.91393C109.214 3.34636 110.12 2.11933 111.638 1.23284C113.156 0.346358 115.046 -0.0644531 117.392 -0.0644531C118.832 -0.0644531 120.038 0.140952 121.178 0.616628C122.318 1.0923 123.146 1.63825 123.752 2.31933C124.358 3.00041 124.658 3.68149 124.658 4.36257C124.658 4.56798 124.658 4.70311 124.658 4.77338C124.658 4.90852 124.508 5.04365 124.43 5.1842C124.352 5.25447 124.202 5.31933 123.974 5.31933H120.182C119.804 5.31933 119.498 5.1842 119.348 4.90852C119.348 4.49771 119.12 4.22744 118.664 3.95176C118.208 3.67609 117.68 3.54095 117.002 3.54095C116.168 3.54095 115.49 3.67609 114.956 3.95176C114.422 4.22744 114.122 4.63284 113.972 5.10852C113.972 5.17879 113.972 5.31392 113.972 5.44906C113.972 5.85987 114.2 6.20041 114.728 6.47068C115.256 6.74095 116.24 6.94636 117.53 7.22203C119.648 7.56257 121.16 8.10852 122.072 8.7896C123.056 9.47068 123.512 10.3572 123.512 11.5193C123.512 11.9301 123.434 12.3355 123.362 12.7464C122.984 14.4491 121.922 15.7464 120.332 16.6328C118.742 17.5193 116.624 17.9301 114.05 17.9301L114.128 18.0004Z" fill="#84858C"/>
<path d="M127.372 17.7942C127.144 17.7942 126.994 17.7239 126.916 17.5888C126.838 17.4536 126.766 17.3185 126.838 17.1131L130.696 0.815804C130.696 0.610399 130.846 0.475264 130.996 0.340129C131.146 0.204994 131.374 0.134723 131.524 0.134723H134.554C135.01 0.134723 135.31 0.340129 135.388 0.680669L138.418 8.58878L145.228 0.680669C145.306 0.545534 145.456 0.410399 145.606 0.269858C145.756 0.129318 145.984 0.0644531 146.29 0.0644531H149.32C149.548 0.0644531 149.698 0.134723 149.776 0.269858C149.854 0.340129 149.854 0.475264 149.854 0.540129C149.854 0.604994 149.854 0.610399 149.854 0.675264L145.996 16.9726C145.918 17.178 145.846 17.3131 145.696 17.4482C145.546 17.5834 145.318 17.6536 145.168 17.6536H141.76C141.532 17.6536 141.382 17.5834 141.304 17.4482C141.226 17.3131 141.154 17.178 141.226 16.9726L143.422 7.76715L139.108 12.8807C138.958 13.0861 138.73 13.2212 138.58 13.2915C138.43 13.3617 138.202 13.4266 137.974 13.4266H136.534C136.156 13.4266 135.85 13.2212 135.7 12.8807L133.732 7.56175L131.458 17.0428C131.38 17.2482 131.308 17.3834 131.158 17.5185C131.008 17.6536 130.78 17.7239 130.63 17.7239H127.3L127.372 17.7942Z" fill="#84858C"/>
</g>
<defs>
<clipPath id="clip0_3392_5663">
<rect width="150" height="18" fill="white"/>
</clipPath>
</defs>
</svg>
