<svg width="299" height="110" viewBox="0 0 299 110" fill="none" xmlns="http://www.w3.org/2000/svg">
<path fill-rule="evenodd" clip-rule="evenodd" d="M191.848 51.7375C190.949 52.1391 190.05 52.4402 189.151 52.641L187.553 53.0425C186.754 53.2433 186.155 53.5445 185.755 53.946C185.456 54.4479 185.256 54.9499 185.256 55.4518C185.256 56.0541 185.456 56.6565 185.855 57.1584C186.255 57.5599 186.854 57.7607 187.653 57.7607C188.952 57.7607 189.95 57.3592 190.65 56.6565C191.349 55.9538 191.748 54.8495 191.748 53.5445L191.848 51.7375ZM192.947 60.3708C191.948 60.8727 190.949 61.1739 189.85 61.2742C188.952 61.3746 187.953 61.475 186.954 61.475C185.356 61.475 183.858 60.9731 182.659 60.0696C181.461 59.1661 180.761 57.6603 180.761 55.5522C180.761 53.5445 181.361 52.1391 182.459 51.336C183.558 50.5329 185.056 49.9305 186.754 49.6294C187.054 49.6294 187.353 49.6294 187.553 49.529C187.953 49.4286 188.252 49.4286 188.652 49.3282C190.65 49.0271 191.648 48.4247 191.648 47.5213C191.648 46.8186 191.249 46.3166 190.55 46.1159C189.95 45.9151 189.251 45.8147 188.552 45.8147C187.953 45.8147 187.353 45.9151 186.854 46.1159C186.355 46.3166 185.955 46.7182 185.755 47.2201H181.161C181.361 45.8147 181.96 44.5097 183.059 43.6062C184.257 42.5019 186.055 42 188.352 42C190.949 42 192.847 42.4015 194.145 43.305C195.444 44.2085 196.143 45.5135 196.143 47.2201V53.6449C196.143 55.5522 195.843 56.9576 195.144 58.0619C194.745 59.0657 193.946 59.8688 192.947 60.3708ZM170.474 61.1739V52.1391C170.474 50.3321 170.773 48.7259 171.273 47.5213C171.772 46.3166 172.471 45.3128 173.47 44.5097C174.369 43.807 175.368 43.305 176.567 43.0039C177.765 42.7027 178.964 42.5019 180.162 42.5019H180.761V47.5213H179.163C177.865 47.5213 176.866 47.8224 176.167 48.5251C175.568 49.2278 175.168 50.2317 175.168 51.6371V61.2742L170.474 61.1739ZM165.28 51.7375C164.381 52.1391 163.482 52.4402 162.583 52.641L160.985 53.0425C160.186 53.2433 159.587 53.5445 159.187 53.946C158.888 54.4479 158.688 54.9499 158.688 55.4518C158.688 56.0541 158.888 56.6565 159.287 57.1584C159.687 57.5599 160.286 57.7607 161.085 57.7607C162.384 57.7607 163.382 57.3592 164.082 56.6565C164.781 55.9538 165.18 54.8495 165.18 53.5445L165.28 51.7375ZM166.379 60.3708C165.38 60.8727 164.381 61.1739 163.283 61.2742C162.384 61.3746 161.385 61.475 160.386 61.475C158.788 61.475 157.29 60.9731 156.091 60.0696C154.893 59.1661 154.194 57.6603 154.194 55.5522C154.194 53.5445 154.793 52.1391 155.891 51.336C156.99 50.5329 158.488 49.9305 160.186 49.6294C160.486 49.6294 160.786 49.6294 160.985 49.529C161.385 49.4286 161.684 49.4286 162.084 49.3282C164.082 49.0271 165.08 48.4247 165.08 47.5213C165.08 46.8186 164.681 46.3166 163.982 46.1159C163.382 45.9151 162.683 45.8147 161.984 45.8147C161.385 45.8147 160.786 45.9151 160.286 46.1159C159.787 46.3166 159.387 46.7182 159.187 47.2201H154.793C154.993 45.8147 155.592 44.5097 156.69 43.6062C157.889 42.5019 159.687 42 161.984 42C164.581 42 166.479 42.4015 167.777 43.305C169.076 44.2085 169.775 45.5135 169.775 47.2201V53.6449C169.775 55.5522 169.475 56.9576 168.776 58.0619C168.177 59.0657 167.378 59.8688 166.379 60.3708ZM149.2 51.8379C149.2 50.0309 148.9 48.6255 148.201 47.6217C147.502 46.6178 146.503 46.1159 145.204 46.1159C144.006 46.1159 143.007 46.6178 142.308 47.6217C141.709 48.5251 141.309 49.9305 141.309 51.8379C141.309 53.6449 141.609 54.9499 142.308 55.8534C143.007 56.8572 144.006 57.3592 145.304 57.3592C146.403 57.3592 147.502 56.8572 148.101 55.8534C148.8 54.8495 149.2 53.5445 149.2 51.8379ZM141.309 65.5909C141.309 66.1932 141.109 66.7955 140.61 67.2974C140.21 67.7994 139.611 68.0002 138.912 68.0002H136.615V50.5329C136.615 47.2201 137.514 45.0116 139.411 43.807C141.209 42.6023 143.407 42 145.504 42C146.703 42 147.901 42.2008 149 42.7027C150.098 43.1043 150.997 43.7066 151.796 44.6101C153.195 46.417 153.894 48.8263 153.894 51.6371C153.894 54.5483 153.195 56.9576 151.796 58.7646C150.398 60.5715 148.7 61.475 146.503 61.475C145.504 61.475 144.405 61.2742 143.506 60.8727C142.607 60.3708 141.808 59.6681 141.309 58.6642V65.5909ZM131.521 51.7375C130.622 52.1391 129.723 52.4402 128.824 52.641L127.226 52.9421C126.427 53.1429 125.828 53.4441 125.428 53.8456C125.129 54.3476 124.929 54.8495 124.929 55.3514C124.929 55.9538 125.129 56.5561 125.528 57.058C125.928 57.4596 126.527 57.6603 127.326 57.6603C128.624 57.6603 129.623 57.2588 130.322 56.5561C131.021 55.8534 131.421 54.7491 131.421 53.4441L131.521 51.7375ZM132.62 60.3708C131.621 60.8727 130.622 61.1739 129.523 61.2742C128.624 61.3746 127.626 61.475 126.627 61.475C125.029 61.475 123.531 60.9731 122.332 60.0696C121.133 59.1661 120.434 57.6603 120.434 55.5522C120.434 53.5445 121.034 52.1391 122.132 51.336C123.231 50.5329 124.729 49.9305 126.427 49.6294C126.727 49.6294 127.026 49.6294 127.226 49.529C127.526 49.4286 127.925 49.4286 128.325 49.3282C130.322 49.0271 131.321 48.4247 131.321 47.5213C131.321 46.8186 130.922 46.3166 130.222 46.1159C129.623 45.9151 128.924 45.8147 128.225 45.8147C127.626 45.8147 127.026 45.9151 126.527 46.1159C126.028 46.3166 125.628 46.7182 125.428 47.2201H120.834C121.034 45.8147 121.633 44.5097 122.731 43.6062C123.93 42.5019 125.728 42 128.025 42C130.622 42 132.52 42.4015 133.818 43.305C135.117 44.2085 135.816 45.5135 135.816 47.2201V53.6449C135.816 55.5522 135.516 56.9576 134.817 58.0619C134.417 59.0657 133.618 59.8688 132.62 60.3708ZM107.55 65.5909C107.55 66.1932 107.35 66.7955 106.851 67.2974C106.451 67.7994 105.852 68.0002 105.153 68.0002H102.855V50.5329C102.855 47.2201 103.754 45.0116 105.652 43.807C107.45 42.6023 109.647 42 111.745 42C112.943 42 114.142 42.2008 115.241 42.7027C116.339 43.1043 117.238 43.7066 118.037 44.6101C119.435 46.417 120.135 48.8263 120.135 51.6371C120.135 54.5483 119.435 56.9576 118.037 58.7646C116.639 60.5715 114.941 61.475 112.744 61.475C111.745 61.475 110.646 61.2742 109.747 60.8727C108.848 60.3708 108.049 59.6681 107.55 58.6642V65.5909ZM115.34 51.8379C115.34 50.0309 115.041 48.6255 114.342 47.6217C113.642 46.6178 112.644 46.1159 111.345 46.1159C110.147 46.1159 109.148 46.6178 108.449 47.6217C107.849 48.5251 107.45 49.9305 107.45 51.8379C107.45 53.6449 107.75 54.9499 108.449 55.8534C109.148 56.8572 110.147 57.3592 111.445 57.3592C112.544 57.3592 113.642 56.8572 114.242 55.8534C115.041 54.8495 115.34 53.5445 115.34 51.8379Z" fill="#84858C"/>
</svg>
