<svg width="299" height="110" viewBox="0 0 299 110" fill="none" xmlns="http://www.w3.org/2000/svg">
<path d="M120.792 43.7744C118.962 43.7744 117.2 43.9945 116.482 44.1806C115.437 44.462 115.176 44.8999 114.98 45.8076L110.833 64.1312C110.767 64.5057 110.703 64.8188 110.703 65.132C110.703 66.0396 111.324 66.6319 112.336 66.6319C113.447 66.6319 113.904 65.9443 114.131 64.8801L115.307 59.6587C116.122 59.7517 117.2 59.847 118.735 59.847C125.495 59.847 129.705 56.3457 129.705 51.0608C129.705 46.4316 126.34 43.7744 120.792 43.7744ZM118.572 56.8449C117.527 56.8449 116.709 56.8131 115.961 56.7201L118.147 46.9944C118.832 46.9014 119.846 46.7743 120.891 46.7743C124.483 46.7743 126.312 48.4013 126.312 51.0903C126.31 54.5303 123.696 56.8449 118.572 56.8449Z" fill="#84858C"/>
<path d="M227.161 60.596C226.607 60.596 226.246 60.9091 225.562 61.6285C224.353 62.8175 223.602 63.4733 222.657 63.4733C221.809 63.4733 221.351 62.8175 221.351 61.7533C221.351 61.1588 221.482 60.4394 221.645 59.6588L222.854 54.2173H226.479C227.621 54.2173 228.308 53.591 228.308 52.4655C228.308 51.8392 227.884 51.3718 226.905 51.3718H223.505L224.093 48.8394C224.159 48.465 224.223 48.12 224.223 47.8069C224.223 46.931 223.602 46.3047 222.591 46.3047C221.513 46.3047 221.025 46.9923 220.795 48.0565L220.044 51.3718H218.508C217.333 51.3718 216.648 51.9981 216.648 53.1236C216.648 53.7499 217.106 54.2173 218.084 54.2173H219.423L218.215 59.5953C218.084 60.1898 217.921 61.1588 217.921 62.1595C217.921 64.6919 219.293 66.5367 222.23 66.5367C223.929 66.5367 225.429 65.7243 226.573 64.7531C227.685 63.816 228.5 62.6587 228.5 61.9076C228.5 61.1905 227.912 60.596 227.161 60.596Z" fill="#84858C"/>
<path d="M152.068 45.6194C152.068 44.7117 151.414 44.1172 150.403 44.1172C149.325 44.1172 148.836 44.8047 148.607 45.869L144.527 64.0361C144.43 64.4105 144.363 64.7236 144.363 65.0368C144.363 65.9444 145.017 66.5367 145.996 66.5367C147.107 66.5367 147.595 65.8491 147.825 64.7849L151.905 46.6201C151.971 46.2434 152.068 45.9325 152.068 45.6194Z" fill="#84858C"/>
<path d="M210.348 51.0583C205.124 51.0583 201.566 56.03 201.566 60.7522C201.566 60.8407 201.568 60.9292 201.57 61.0154C200.75 62.2068 199.703 63.4412 198.985 63.4412C198.464 63.4412 198.267 62.9715 198.267 62.2521C198.267 61.3762 198.528 59.9058 198.822 58.6237L201.532 46.6152C201.599 46.2408 201.663 45.9276 201.663 45.6145C201.663 44.7068 201.042 44.1123 200.03 44.1123C198.919 44.1123 198.464 44.7999 198.234 45.8641L196.765 52.3676C195.981 51.587 194.837 51.0537 193.107 51.0537C189.639 51.0537 186.149 53.6111 184.789 57.5345C183.291 61.2424 181.953 63.4367 180.896 63.4367C180.505 63.4367 180.275 63.1235 180.275 62.5925C180.275 61.0291 181.19 57.2146 181.581 55.3697C181.711 54.6822 181.777 54.4008 181.777 53.9946C181.777 52.6195 179.394 50.9925 176.292 50.9925C172.705 50.9925 169.457 53.1686 167.829 56.3999C165.41 60.4935 163.19 63.4367 162.091 63.4367C161.6 63.4367 161.437 62.8421 161.307 62.2794L160.494 57.9702L165.488 54.0627C165.946 53.6883 166.533 53.155 166.533 52.4674C166.533 51.6233 165.946 51.0605 165.064 51.0605C164.41 51.0605 163.856 51.435 163.302 51.8729L155.793 57.8136L158.307 46.6198C158.373 46.2453 158.471 45.9322 158.471 45.619C158.471 44.7114 157.817 44.1168 156.805 44.1168C155.727 44.1168 155.239 44.8044 155.009 45.8686L150.929 64.0357C150.832 64.4101 150.766 64.7233 150.766 65.0364C150.766 65.9441 151.42 66.5364 152.398 66.5364C153.509 66.5364 153.997 65.8488 154.227 64.7846L154.751 62.4405L157.819 60.0647L158.57 63.6908C158.864 65.1295 159.648 66.5364 161.671 66.5364C163.685 66.5364 165.27 64.7755 166.858 62.3951C167.339 64.8889 169.192 66.5364 171.762 66.5364C174.342 66.5364 176.105 65.0659 177.247 63.0963V63.1598C177.247 65.193 178.325 66.5364 180.218 66.5364C181.931 66.5364 183.353 65.547 184.623 63.4457C185.343 65.277 186.954 66.5364 189.195 66.5364C191.84 66.5364 193.733 65.0047 194.941 62.8784V63.0668C194.941 65.3178 196.116 66.5386 198.042 66.5386C199.744 66.5386 201.189 65.5924 202.423 64.0539C203.361 65.5924 205.044 66.5386 207.316 66.5386C212.54 66.5386 216.099 61.5669 216.099 56.8129C216.096 53.4659 213.973 51.0583 210.348 51.0583ZM177.799 57.4074C176.851 61.315 174.828 63.5365 172.542 63.5365C171.006 63.5365 170.158 62.411 170.158 60.7227C170.158 57.4074 172.672 53.8426 176.034 53.8426C177.046 53.8426 177.83 54.1239 178.515 54.5301L177.799 57.4074ZM195.983 55.7509C194.939 60.3483 192.555 63.5365 189.944 63.5365C188.508 63.5365 187.658 62.4723 187.658 60.7227C187.658 57.3779 190.074 53.9061 193.306 53.9061C194.548 53.9061 195.493 54.3123 196.18 54.8433L195.983 55.7509ZM207.704 63.5365C205.811 63.5365 205.027 62.2226 205.027 60.5661C205.027 57.5322 207.214 54.0627 209.958 54.0627C211.851 54.0627 212.635 55.3765 212.635 57.033C212.635 60.0964 210.448 63.5365 207.704 63.5365Z" fill="#84858C"/>
<path d="M137.834 51.0586C132.609 51.0586 129.051 56.0304 129.051 60.7525C129.051 64.1291 131.174 66.5367 134.796 66.5367C140.021 66.5367 143.579 61.5649 143.579 56.811C143.579 53.4662 141.456 51.0586 137.834 51.0586ZM135.19 63.5368C133.297 63.5368 132.512 62.223 132.512 60.5665C132.512 57.5326 134.699 54.063 137.443 54.063C139.336 54.063 140.12 55.3768 140.12 57.0334C140.118 60.0967 137.931 63.5368 135.19 63.5368Z" fill="#84858C"/>
<path d="M87.9821 45.7122C91.3097 45.7122 94.0072 44.2097 94.0072 42.3561C94.0072 40.5026 91.3097 39 87.9821 39C84.6546 39 81.957 40.5026 81.957 42.3561C81.957 44.2097 84.6546 45.7122 87.9821 45.7122Z" fill="#84858C"/>
<path d="M87.9821 71.0003C91.3097 71.0003 94.0072 69.4977 94.0072 67.6442C94.0072 65.7907 91.3097 64.2881 87.9821 64.2881C84.6546 64.2881 81.957 65.7907 81.957 67.6442C81.957 69.4977 84.6546 71.0003 87.9821 71.0003Z" fill="#84858C"/>
<path d="M79.5859 50.3582C81.2497 47.5983 81.2389 44.6091 79.5618 43.6817C77.8847 42.7543 75.1763 44.2399 73.5125 46.9998C71.8488 49.7597 71.8596 52.7489 73.5367 53.6763C75.2138 54.6037 77.9221 53.1181 79.5859 50.3582Z" fill="#84858C"/>
<path d="M102.449 62.9995C104.113 60.2395 104.103 57.2509 102.427 56.3241C100.751 55.3974 98.0435 56.8834 96.3797 59.6433C94.716 62.4033 94.7258 65.3919 96.4018 66.3187C98.0778 67.2455 100.785 65.7594 102.449 62.9995Z" fill="#84858C"/>
<path d="M79.5618 66.3183C81.2389 65.3909 81.2497 62.4017 79.5859 59.6418C77.9221 56.8819 75.2138 55.3963 73.5367 56.3237C71.8596 57.2511 71.8488 60.2403 73.5125 63.0002C75.1763 65.7601 77.8847 67.2457 79.5618 66.3183Z" fill="#84858C"/>
<path d="M102.427 53.6768C104.103 52.7501 104.113 49.7614 102.449 47.0015C100.785 44.2416 98.0778 42.7555 96.4018 43.6823C94.7258 44.6091 94.716 47.5977 96.3797 50.3576C98.0435 53.1176 100.751 54.6036 102.427 53.6768Z" fill="#84858C"/>
</svg>
