<svg width="158" height="32" viewBox="0 0 158 32" fill="none" xmlns="http://www.w3.org/2000/svg">
<path d="M50.2916 4.77441C48.4625 4.77441 46.6997 4.99453 45.9818 5.1806C44.937 5.46198 44.6763 5.89993 44.4797 6.8076L40.3334 25.1312C40.2671 25.5057 40.2031 25.8188 40.2031 26.132C40.2031 27.0396 40.8239 27.6319 41.8356 27.6319C42.9468 27.6319 43.404 26.9443 43.6315 25.8801L44.8067 20.6587C45.6217 20.7517 46.6997 20.847 48.235 20.847C54.9946 20.847 59.2048 17.3457 59.2048 12.0608C59.2048 7.43163 55.8404 4.77441 50.2916 4.77441ZM48.0715 17.8449C47.0267 17.8449 46.2093 17.8131 45.4606 17.7201L47.6474 7.99439C48.3322 7.90135 49.3462 7.77428 50.3911 7.77428C53.9829 7.77428 55.812 9.40128 55.812 12.0903C55.8096 15.5303 53.1963 17.8449 48.0715 17.8449Z" fill="#84858C"/>
<path d="M156.661 21.596C156.107 21.596 155.746 21.9091 155.062 22.6285C153.853 23.8175 153.102 24.4733 152.157 24.4733C151.309 24.4733 150.851 23.8175 150.851 22.7533C150.851 22.1588 150.982 21.4394 151.145 20.6588L152.354 15.2173H155.979C157.121 15.2173 157.808 14.591 157.808 13.4655C157.808 12.8392 157.384 12.3718 156.405 12.3718H153.005L153.593 9.83937C153.659 9.46495 153.723 9.12004 153.723 8.80689C153.723 7.93099 153.102 7.30469 152.091 7.30469C151.013 7.30469 150.525 7.99225 150.295 9.0565L149.544 12.3718H148.008C146.833 12.3718 146.148 12.9981 146.148 14.1236C146.148 14.7499 146.606 15.2173 147.584 15.2173H148.923L147.715 20.5953C147.584 21.1898 147.421 22.1588 147.421 23.1595C147.421 25.6919 148.793 27.5367 151.73 27.5367C153.429 27.5367 154.929 26.7243 156.073 25.7531C157.185 24.816 158 23.6587 158 22.9076C158 22.1905 157.412 21.596 156.661 21.596Z" fill="#84858C"/>
<path d="M81.5682 6.61938C81.5682 5.71171 80.9143 5.11719 79.9026 5.11719C78.8246 5.11719 78.3365 5.80475 78.1067 6.86899L74.0268 25.0361C73.9296 25.4105 73.8633 25.7236 73.8633 26.0368C73.8633 26.9444 74.5172 27.5367 75.4957 27.5367C76.6069 27.5367 77.095 26.8491 77.3248 25.7849L81.4047 7.6201C81.4711 7.24341 81.5682 6.93253 81.5682 6.61938Z" fill="#84858C"/>
<path d="M139.848 12.0583C134.624 12.0583 131.066 17.03 131.066 21.7522C131.066 21.8407 131.068 21.9292 131.07 22.0154C130.25 23.2068 129.203 24.4412 128.485 24.4412C127.964 24.4412 127.767 23.9715 127.767 23.2521C127.767 22.3762 128.028 20.9058 128.322 19.6237L131.032 7.61521C131.099 7.2408 131.163 6.92765 131.163 6.6145C131.163 5.70683 130.542 5.1123 129.53 5.1123C128.419 5.1123 127.964 5.79987 127.734 6.86411L126.265 13.3676C125.481 12.587 124.337 12.0537 122.607 12.0537C119.139 12.0537 115.649 14.6111 114.289 18.5345C112.791 22.2424 111.453 24.4367 110.396 24.4367C110.005 24.4367 109.775 24.1235 109.775 23.5925C109.775 22.0291 110.69 18.2146 111.081 16.3697C111.211 15.6822 111.277 15.4008 111.277 14.9946C111.277 13.6195 108.894 11.9925 105.792 11.9925C102.205 11.9925 98.9569 14.1686 97.3292 17.3999C94.9102 21.4935 92.6902 24.4367 91.5908 24.4367C91.1004 24.4367 90.9369 23.8421 90.8066 23.2794L89.9939 18.9702L94.9884 15.0627C95.4457 14.6883 96.0332 14.155 96.0332 13.4674C96.0332 12.6233 95.4456 12.0605 94.5643 12.0605C93.9103 12.0605 93.3559 12.435 92.8015 12.8729L85.2933 18.8136L87.8071 7.61975C87.8734 7.24534 87.9705 6.93219 87.9705 6.61904C87.9705 5.71137 87.3166 5.11684 86.3049 5.11684C85.2269 5.11684 84.7388 5.8044 84.509 6.86865L80.4291 25.0357C80.332 25.4101 80.2656 25.7233 80.2656 26.0364C80.2656 26.9441 80.9196 27.5364 81.8981 27.5364C83.0093 27.5364 83.4973 26.8488 83.7272 25.7846L84.2508 23.4405L87.319 21.0647L88.0701 24.6908C88.3639 26.1295 89.1481 27.5364 91.1715 27.5364C93.1854 27.5364 94.7704 25.7755 96.3578 23.3951C96.8388 25.8889 98.6916 27.5364 101.262 27.5364C103.842 27.5364 105.605 26.0659 106.747 24.0963V24.1598C106.747 26.193 107.825 27.5364 109.718 27.5364C111.431 27.5364 112.853 26.547 114.123 24.4457C114.843 26.277 116.454 27.5364 118.695 27.5364C121.34 27.5364 123.233 26.0047 124.441 23.8784V24.0668C124.441 26.3178 125.616 27.5386 127.542 27.5386C129.244 27.5386 130.689 26.5924 131.923 25.0539C132.861 26.5924 134.544 27.5386 136.816 27.5386C142.04 27.5386 145.599 22.5669 145.599 17.8129C145.596 14.4659 143.473 12.0583 139.848 12.0583ZM107.299 18.4074C106.351 22.315 104.328 24.5365 102.042 24.5365C100.506 24.5365 99.6582 23.411 99.6582 21.7227C99.6582 18.4074 102.172 14.8426 105.534 14.8426C106.546 14.8426 107.33 15.1239 108.015 15.5301L107.299 18.4074ZM125.483 16.7509C124.439 21.3483 122.055 24.5365 119.444 24.5365C118.008 24.5365 117.158 23.4723 117.158 21.7227C117.158 18.3779 119.574 14.9061 122.806 14.9061C124.048 14.9061 124.993 15.3123 125.68 15.8433L125.483 16.7509ZM137.204 24.5365C135.311 24.5365 134.527 23.2226 134.527 21.5661C134.527 18.5322 136.714 15.0627 139.458 15.0627C141.351 15.0627 142.135 16.3765 142.135 18.033C142.135 21.0964 139.948 24.5365 137.204 24.5365Z" fill="#84858C"/>
<path d="M67.3337 12.0586C62.1095 12.0586 58.5508 17.0304 58.5508 21.7525C58.5508 25.1291 60.6737 27.5367 64.2963 27.5367C69.5206 27.5367 73.0793 22.5649 73.0793 17.811C73.0793 14.4662 70.9564 12.0586 67.3337 12.0586ZM64.6896 24.5368C62.7965 24.5368 62.0123 23.223 62.0123 21.5665C62.0123 18.5326 64.1992 15.063 66.9428 15.063C68.8359 15.063 69.6201 16.3768 69.6201 18.0334C69.6177 21.0967 67.4309 24.5368 64.6896 24.5368Z" fill="#84858C"/>
<path d="M17.4821 6.71224C20.8097 6.71224 23.5072 5.20965 23.5072 3.35612C23.5072 1.50258 20.8097 0 17.4821 0C14.1546 0 11.457 1.50258 11.457 3.35612C11.457 5.20965 14.1546 6.71224 17.4821 6.71224Z" fill="#84858C"/>
<path d="M17.4821 32.0003C20.8097 32.0003 23.5072 30.4977 23.5072 28.6442C23.5072 26.7907 20.8097 25.2881 17.4821 25.2881C14.1546 25.2881 11.457 26.7907 11.457 28.6442C11.457 30.4977 14.1546 32.0003 17.4821 32.0003Z" fill="#84858C"/>
<path d="M9.08589 11.3582C10.7497 8.59826 10.7389 5.6091 9.06177 4.68171C7.38466 3.75431 4.67633 5.23987 3.01255 7.99979C1.34876 10.7597 1.35956 13.7489 3.03667 14.6763C4.71377 15.6037 7.4221 14.1181 9.08589 11.3582Z" fill="#84858C"/>
<path d="M31.949 23.9995C33.6128 21.2395 33.6029 18.2509 31.9269 17.3241C30.2509 16.3974 27.5435 17.8834 25.8797 20.6433C24.216 23.4033 24.2258 26.3919 25.9018 27.3187C27.5778 28.2455 30.2852 26.7594 31.949 23.9995Z" fill="#84858C"/>
<path d="M9.06177 27.3183C10.7389 26.3909 10.7497 23.4017 9.08589 20.6418C7.4221 17.8819 4.71377 16.3963 3.03667 17.3237C1.35956 18.2511 1.34876 21.2403 3.01255 24.0002C4.67633 26.7601 7.38466 28.2457 9.06177 27.3183Z" fill="#84858C"/>
<path d="M31.9269 14.6768C33.6029 13.7501 33.6128 10.7614 31.949 8.00151C30.2852 5.24159 27.5778 3.75552 25.9018 4.68229C24.2258 5.60906 24.216 8.59771 25.8797 11.3576C27.5435 14.1176 30.2509 15.6036 31.9269 14.6768Z" fill="#84858C"/>
</svg>
