<svg width="148" height="40" viewBox="0 0 148 40" fill="none" xmlns="http://www.w3.org/2000/svg">
<g clip-path="url(#clip0_3392_5707)">
<path d="M37.0776 20.0002C37.0776 30.0959 29.0369 38.2806 19.1147 38.2806C9.19249 38.2806 1.14844 30.0959 1.14844 20.0002C1.14844 9.90444 9.19249 1.71973 19.1147 1.71973C29.0369 1.71973 37.0776 9.90444 37.0776 20.0002Z" fill="#84858C"/>
<path d="M19.258 30.1935C14.3233 30.2105 9.18725 25.9248 9.16415 19.0399C9.14762 14.4891 11.5638 10.1062 14.6468 7.50669C17.6571 4.97436 21.7798 3.34546 25.5163 3.33203C25.9982 3.33203 26.5032 3.37226 26.8102 3.47974C23.5424 4.16825 20.9414 7.26478 20.9513 10.7745C20.9513 10.8919 20.9611 11.0162 20.9743 11.0733C26.4437 12.4302 28.9259 15.7887 28.9424 20.4335C28.9556 25.0818 25.3513 30.1733 19.258 30.1935Z" fill="white"/>
<path d="M48.68 27.5701L43.1875 14.2334H46.7755L50.2017 23.0898L53.5223 14.2334H56.9485L51.6177 27.5701H48.68Z" fill="#84858C"/>
<path d="M66.5073 20.8331C66.5073 20.279 66.4446 19.7517 66.3158 19.2513C66.1904 18.7509 65.9989 18.321 65.7448 17.9616C65.4906 17.5989 65.1836 17.3134 64.8205 17.1018C64.4575 16.8868 64.0316 16.7794 63.5431 16.7794C63.0546 16.7794 62.6255 16.8869 62.2657 17.1018C61.9026 17.3134 61.5924 17.5989 61.3415 17.9616C61.0873 18.321 60.8959 18.7509 60.7705 19.2513C60.6417 19.7517 60.579 20.279 60.579 20.8331C60.579 21.4074 60.6417 21.9414 60.7705 22.4318C60.8959 22.9221 61.0807 23.352 61.325 23.7214C61.5692 24.0909 61.8795 24.3831 62.2525 24.598C62.6222 24.8096 63.0546 24.9171 63.5431 24.9171C64.0316 24.9171 64.4575 24.8096 64.8205 24.598C65.1836 24.3831 65.4906 24.0909 65.7448 23.7214C65.9989 23.352 66.1904 22.9221 66.3158 22.4318C66.4445 21.9414 66.5073 21.4074 66.5073 20.8331ZM69.8246 20.8478C69.8246 21.7176 69.6925 22.5707 69.4318 23.4103C69.1677 24.2499 68.7782 24.9989 68.26 25.6638C67.7451 26.3288 67.0915 26.8629 66.3026 27.2693C65.5137 27.6756 64.5928 27.8771 63.5431 27.8771C62.4902 27.8771 61.5693 27.6756 60.7837 27.2693C59.9948 26.8629 59.3412 26.3289 58.823 25.6639C58.3081 24.9989 57.9186 24.2499 57.6545 23.4103C57.3937 22.5707 57.2617 21.7176 57.2617 20.8478C57.2617 19.9813 57.3937 19.1349 57.6545 18.302C57.9186 17.4724 58.3081 16.7302 58.823 16.0753C59.3412 15.4204 59.9948 14.8964 60.7837 14.5001C61.5693 14.1038 62.4902 13.9023 63.5431 13.9023C64.5928 13.9023 65.5104 14.1039 66.2894 14.5001C67.0684 14.8964 67.7219 15.4204 68.2468 16.0753C68.7749 16.7302 69.1677 17.4724 69.4318 18.302C69.6925 19.1349 69.8246 19.9813 69.8246 20.8478Z" fill="#84858C"/>
<path d="M79.9537 17.169C79.3034 16.9104 78.6994 16.7794 78.1382 16.7794C77.5639 16.7794 77.0655 16.8937 76.6529 17.1152C76.237 17.3368 75.8937 17.6358 75.623 18.0153C75.3524 18.3948 75.151 18.8214 75.0157 19.2949C74.8804 19.7651 74.811 20.2521 74.811 20.7525C74.811 21.3067 74.8704 21.8373 74.9893 22.3478C75.1048 22.8549 75.2864 23.3016 75.5306 23.6811C75.7716 24.0607 76.0785 24.3663 76.4482 24.598C76.8179 24.8264 77.2569 24.9439 77.762 24.9439C78.1779 24.9439 78.6004 24.8265 79.0328 24.598C79.4652 24.3662 79.7721 24.0909 79.9537 23.7785L79.9537 17.169ZM80.2243 27.5703L80.089 26.5493C79.782 26.8986 79.376 27.2076 78.8677 27.4729C78.3627 27.7416 77.7653 27.8759 77.0787 27.8759C76.1776 27.8759 75.3788 27.6812 74.6955 27.2949C74.0056 26.9087 73.428 26.3915 72.9593 25.7467C72.4906 25.1018 72.1308 24.3529 71.8865 23.5032C71.6456 22.6568 71.5234 21.7702 71.5234 20.8466C71.5234 19.9801 71.6489 19.1303 71.8997 18.3008C72.1539 17.4712 72.5368 16.729 73.0517 16.0741C73.5699 15.4192 74.2136 14.8953 74.9926 14.499C75.7683 14.1026 76.6826 13.9011 77.7289 13.9011C78.4155 13.9011 79.1582 14.032 79.9537 14.2874V9.11523H83.3238V27.5703H80.2243Z" fill="#84858C"/>
<path d="M92.8171 21.317C92.454 21.3365 92.0777 21.3708 91.6948 21.4145C91.3119 21.4615 90.9488 21.5219 90.6022 21.5958C89.8695 21.7435 89.3644 21.9955 89.0806 22.3548C88.8 22.7176 88.6581 23.1071 88.6581 23.5337C88.6581 23.9736 88.8165 24.3297 89.1367 24.5983C89.4569 24.8637 89.9058 24.998 90.49 24.998C90.929 24.998 91.3548 24.9073 91.7641 24.7226C92.1734 24.5379 92.5266 24.3061 92.8171 24.0307V21.317ZM93.0877 27.5605L92.9557 26.563C92.5893 26.9727 92.1272 27.2952 91.5628 27.5269C90.9983 27.7587 90.3811 27.8762 89.7077 27.8762C89.1433 27.8762 88.5987 27.7787 88.0837 27.584C87.5622 27.3927 87.1034 27.1138 86.704 26.7545C86.3046 26.3951 85.9811 25.9551 85.7369 25.4278C85.4893 24.9005 85.3672 24.3061 85.3672 23.6411C85.3672 22.9795 85.4926 22.3917 85.7501 21.8846C86.0042 21.3775 86.3475 20.9509 86.7865 20.5983C87.2222 20.249 87.724 19.9635 88.2884 19.7419C88.8495 19.5203 89.4437 19.3523 90.0609 19.2414C90.4966 19.1508 90.9752 19.0835 91.4935 19.0364C92.0117 18.9894 92.4441 18.9492 92.7907 18.9122V18.7174C92.7907 17.9786 92.6058 17.4546 92.2295 17.1389C91.8565 16.8266 91.3416 16.6687 90.6881 16.6687C90.3052 16.6687 89.9388 16.7158 89.5922 16.8098C89.2456 16.9005 88.9386 17.0148 88.6647 17.1524C88.3907 17.2935 88.1498 17.4312 87.9385 17.5689C87.7306 17.7066 87.5622 17.8308 87.4335 17.9417L86.3178 15.5369C86.463 15.4061 86.6842 15.2515 86.9846 15.0668C87.2849 14.882 87.6447 14.7007 88.0738 14.526C88.4996 14.3513 88.9782 14.2036 89.513 14.0827C90.0477 13.9618 90.6253 13.9014 91.2393 13.9014C91.9655 13.9014 92.6289 13.9989 93.2264 14.1936C93.8238 14.3883 94.342 14.6906 94.7777 15.1071C95.2102 15.5202 95.5501 16.0441 95.7977 16.6822C96.042 17.317 96.1641 18.0861 96.1641 18.9895V27.5605H93.0877Z" fill="#84858C"/>
<path d="M106.582 12.1581C106.473 12.1045 106.261 12.0238 105.945 11.9229C105.624 11.8223 105.205 11.7718 104.677 11.7718C104.208 11.7718 103.812 11.9164 103.495 12.2017C103.179 12.4872 103.02 12.954 103.02 13.5989V14.2336H105.849V17.001H103.047V27.5703H99.6731V17.001H97.9336V14.2336H99.6731V13.5149C99.6731 12.6484 99.782 11.9163 99.9999 11.3151C100.218 10.7173 100.521 10.2269 100.911 9.85076C101.3 9.47124 101.759 9.1925 102.284 9.01785C102.812 8.84311 103.383 8.75586 104 8.75586C104.816 8.75586 105.489 8.83311 106.024 8.99104C106.559 9.14897 106.872 9.25301 106.961 9.31011L106.582 12.1581Z" fill="#84858C"/>
<path d="M115.777 20.8331C115.777 20.279 115.711 19.7517 115.585 19.2513C115.46 18.7509 115.268 18.321 115.014 17.9616C114.76 17.5989 114.453 17.3134 114.09 17.1018C113.727 16.8868 113.301 16.7794 112.813 16.7794C112.324 16.7794 111.895 16.8869 111.535 17.1018C111.172 17.3134 110.862 17.5989 110.608 17.9616C110.357 18.321 110.165 18.7509 110.037 19.2513C109.911 19.7517 109.849 20.279 109.849 20.8331C109.849 21.4074 109.911 21.9414 110.037 22.4318C110.165 22.9221 110.35 23.352 110.595 23.7214C110.839 24.0909 111.149 24.3831 111.519 24.598C111.892 24.8096 112.324 24.9171 112.813 24.9171C113.301 24.9171 113.727 24.8096 114.09 24.598C114.453 24.3831 114.76 24.0909 115.014 23.7214C115.268 23.352 115.46 22.9221 115.585 22.4318C115.711 21.9414 115.777 21.4074 115.777 20.8331ZM119.094 20.8478C119.094 21.7176 118.962 22.5707 118.698 23.4103C118.437 24.2499 118.048 24.9989 117.53 25.6638C117.015 26.3288 116.361 26.8629 115.572 27.2693C114.783 27.6756 113.862 27.8771 112.813 27.8771C111.76 27.8771 110.839 27.6756 110.053 27.2693C109.264 26.8629 108.611 26.3289 108.093 25.6639C107.578 24.9989 107.188 24.2499 106.924 23.4103C106.66 22.5707 106.531 21.7176 106.531 20.8478C106.531 19.9813 106.66 19.1349 106.924 18.302C107.188 17.4724 107.578 16.7302 108.093 16.0753C108.611 15.4204 109.264 14.8964 110.053 14.5001C110.839 14.1038 111.76 13.9023 112.813 13.9023C113.862 13.9023 114.78 14.1039 115.559 14.5001C116.338 14.8964 116.991 15.4204 117.516 16.0753C118.044 16.7302 118.437 17.4724 118.698 18.302C118.962 19.1349 119.094 19.9813 119.094 20.8478Z" fill="#84858C"/>
<path d="M129.559 27.5701V19.9631C129.559 18.9488 129.351 18.1629 128.935 17.6087C128.516 17.0579 127.938 16.7792 127.192 16.7792C126.667 16.7792 126.182 16.9169 125.74 17.1956C125.294 17.471 124.908 17.7766 124.581 18.1091V27.5701H121.211V14.2334H124.284L124.446 15.2847C124.974 14.8447 125.565 14.5021 126.228 14.2636C126.888 14.0219 127.555 13.9043 128.225 13.9043C128.915 13.9043 129.549 14.0084 130.13 14.22C130.711 14.4349 131.209 14.7708 131.625 15.2309C132.044 15.691 132.364 16.2922 132.592 17.0277C132.817 17.7666 132.932 18.6532 132.932 19.6843V27.5701H129.559Z" fill="#84858C"/>
<path d="M143.421 19.2986C143.385 18.8385 143.289 18.4354 143.134 18.0962C142.979 17.7536 142.788 17.4783 142.56 17.2667C142.332 17.0517 142.088 16.8972 141.824 16.7931C141.557 16.6924 141.289 16.642 141.015 16.642C140.431 16.642 139.876 16.8636 139.348 17.307C138.82 17.7503 138.51 18.4119 138.417 19.2986H143.421ZM138.338 21.7603C138.411 22.8854 138.754 23.6983 139.375 24.1953C139.992 24.6924 140.794 24.9442 141.774 24.9442C142.23 24.9442 142.659 24.9006 143.058 24.8199C143.458 24.7361 143.814 24.6318 144.125 24.5009C144.435 24.3732 144.699 24.2423 144.917 24.1147C145.135 23.9838 145.296 23.8628 145.409 23.752L146.306 26.5496C146.178 26.6402 145.973 26.7646 145.692 26.9224C145.412 27.0803 145.062 27.2247 144.646 27.3657C144.23 27.5034 143.738 27.621 143.177 27.7251C142.616 27.8257 141.999 27.8762 141.329 27.8762C140.474 27.8762 139.665 27.7385 138.893 27.4631C138.124 27.1843 137.447 26.7544 136.869 26.1734C136.288 25.5924 135.826 24.8703 135.483 24.0038C135.136 23.1373 134.965 22.1029 134.965 20.9039C134.965 19.7788 135.123 18.7813 135.44 17.9148C135.757 17.0483 136.193 16.3195 136.744 15.7284C137.299 15.1406 137.942 14.6873 138.675 14.3715C139.411 14.0592 140.193 13.9014 141.028 13.9014C141.864 13.9014 142.633 14.0425 143.342 14.3178C144.049 14.5932 144.659 15.0231 145.178 15.6041C145.692 16.1852 146.102 16.9374 146.399 17.861C146.699 18.7813 146.848 19.8796 146.848 21.1524V21.7603L138.338 21.7603Z" fill="#84858C"/>
</g>
<defs>
<clipPath id="clip0_3392_5707">
<rect width="148" height="40" fill="white"/>
</clipPath>
</defs>
</svg>
