<svg width="299" height="110" viewBox="0 0 299 110" fill="none" xmlns="http://www.w3.org/2000/svg">
<g clip-path="url(#clip0_3392_5706)">
<path d="M112.578 55.0002C112.578 65.0959 104.537 73.2806 94.6147 73.2806C84.6925 73.2806 76.6484 65.0959 76.6484 55.0002C76.6484 44.9044 84.6925 36.7197 94.6147 36.7197C104.537 36.7197 112.578 44.9044 112.578 55.0002Z" fill="#84858C"/>
<path d="M94.758 65.1935C89.8233 65.2105 84.6873 60.9248 84.6641 54.0399C84.6476 49.4891 87.0638 45.1062 90.1468 42.5067C93.1571 39.9744 97.2798 38.3455 101.016 38.332C101.498 38.332 102.003 38.3723 102.31 38.4797C99.0424 39.1682 96.4414 42.2648 96.4513 45.7745C96.4513 45.8919 96.4611 46.0162 96.4743 46.0733C101.944 47.4302 104.426 50.7887 104.442 55.4335C104.456 60.0818 100.851 65.1733 94.758 65.1935Z" fill="white"/>
<path d="M124.18 62.5701L118.688 49.2334H122.275L125.702 58.0898L129.022 49.2334H132.449L127.118 62.5701H124.18Z" fill="#84858C"/>
<path d="M142.007 55.8331C142.007 55.279 141.945 54.7517 141.816 54.2513C141.69 53.7509 141.499 53.321 141.245 52.9616C140.991 52.5989 140.684 52.3134 140.321 52.1018C139.957 51.8868 139.532 51.7794 139.043 51.7794C138.555 51.7794 138.126 51.8869 137.766 52.1018C137.403 52.3134 137.092 52.5989 136.841 52.9616C136.587 53.321 136.396 53.7509 136.27 54.2513C136.142 54.7517 136.079 55.279 136.079 55.8331C136.079 56.4074 136.142 56.9414 136.27 57.4318C136.396 57.9221 136.581 58.352 136.825 58.7214C137.069 59.0909 137.38 59.3831 137.753 59.598C138.122 59.8096 138.555 59.9171 139.043 59.9171C139.532 59.9171 139.957 59.8096 140.321 59.598C140.684 59.3831 140.991 59.0909 141.245 58.7214C141.499 58.352 141.69 57.9221 141.816 57.4318C141.945 56.9414 142.007 56.4074 142.007 55.8331ZM145.325 55.8478C145.325 56.7176 145.193 57.5707 144.932 58.4103C144.668 59.2499 144.278 59.9989 143.76 60.6638C143.245 61.3288 142.591 61.8629 141.803 62.2693C141.014 62.6756 140.093 62.8771 139.043 62.8771C137.99 62.8771 137.069 62.6756 136.284 62.2693C135.495 61.8629 134.841 61.3289 134.323 60.6639C133.808 59.9989 133.419 59.2499 133.155 58.4103C132.894 57.5707 132.762 56.7176 132.762 55.8478C132.762 54.9813 132.894 54.1349 133.155 53.302C133.419 52.4724 133.808 51.7302 134.323 51.0753C134.841 50.4204 135.495 49.8964 136.284 49.5001C137.069 49.1038 137.99 48.9023 139.043 48.9023C140.093 48.9023 141.01 49.1039 141.789 49.5001C142.568 49.8964 143.222 50.4204 143.747 51.0753C144.275 51.7302 144.668 52.4724 144.932 53.302C145.193 54.1349 145.325 54.9813 145.325 55.8478Z" fill="#84858C"/>
<path d="M155.454 52.169C154.803 51.9104 154.199 51.7794 153.638 51.7794C153.064 51.7794 152.565 51.8937 152.153 52.1152C151.737 52.3368 151.394 52.6358 151.123 53.0153C150.852 53.3948 150.651 53.8214 150.516 54.2949C150.38 54.7651 150.311 55.2521 150.311 55.7525C150.311 56.3067 150.37 56.8373 150.489 57.3478C150.605 57.8549 150.786 58.3016 151.031 58.6811C151.272 59.0607 151.579 59.3663 151.948 59.598C152.318 59.8264 152.757 59.9439 153.262 59.9439C153.678 59.9439 154.1 59.8265 154.533 59.598C154.965 59.3662 155.272 59.0909 155.454 58.7785L155.454 52.169ZM155.724 62.5703L155.589 61.5493C155.282 61.8986 154.876 62.2076 154.368 62.4729C153.863 62.7416 153.265 62.8759 152.579 62.8759C151.678 62.8759 150.879 62.6812 150.196 62.2949C149.506 61.9087 148.928 61.3915 148.459 60.7467C147.991 60.1018 147.631 59.3529 147.387 58.5032C147.146 57.6568 147.023 56.7702 147.023 55.8466C147.023 54.9801 147.149 54.1303 147.4 53.3008C147.654 52.4712 148.037 51.729 148.552 51.0741C149.07 50.4192 149.714 49.8953 150.493 49.499C151.268 49.1026 152.183 48.9011 153.229 48.9011C153.916 48.9011 154.658 49.032 155.454 49.2874V44.1152H158.824V62.5703H155.724Z" fill="#84858C"/>
<path d="M168.317 56.317C167.954 56.3365 167.578 56.3708 167.195 56.4145C166.812 56.4615 166.449 56.5219 166.102 56.5958C165.369 56.7435 164.864 56.9955 164.581 57.3548C164.3 57.7176 164.158 58.1071 164.158 58.5337C164.158 58.9736 164.317 59.3297 164.637 59.5983C164.957 59.8637 165.406 59.998 165.99 59.998C166.429 59.998 166.855 59.9073 167.264 59.7226C167.673 59.5379 168.027 59.3061 168.317 59.0307V56.317ZM168.588 62.5605L168.456 61.563C168.089 61.9727 167.627 62.2952 167.063 62.5269C166.498 62.7587 165.881 62.8762 165.208 62.8762C164.643 62.8762 164.099 62.7787 163.584 62.584C163.062 62.3927 162.603 62.1138 162.204 61.7545C161.805 61.3951 161.481 60.9551 161.237 60.4278C160.989 59.9005 160.867 59.3061 160.867 58.6411C160.867 57.9795 160.993 57.3917 161.25 56.8846C161.504 56.3775 161.848 55.9509 162.287 55.5983C162.722 55.249 163.224 54.9635 163.788 54.7419C164.35 54.5203 164.944 54.3523 165.561 54.2414C165.997 54.1508 166.475 54.0835 166.993 54.0364C167.512 53.9894 167.944 53.9492 168.291 53.9122V53.7174C168.291 52.9786 168.106 52.4546 167.73 52.1389C167.357 51.8266 166.842 51.6687 166.188 51.6687C165.805 51.6687 165.439 51.7158 165.092 51.8098C164.746 51.9005 164.439 52.0148 164.165 52.1524C163.891 52.2935 163.65 52.4312 163.439 52.5689C163.231 52.7066 163.062 52.8308 162.933 52.9417L161.818 50.5369C161.963 50.4061 162.184 50.2515 162.485 50.0668C162.785 49.882 163.145 49.7007 163.574 49.526C164 49.3513 164.478 49.2036 165.013 49.0827C165.548 48.9618 166.125 48.9014 166.739 48.9014C167.465 48.9014 168.129 48.9989 168.726 49.1936C169.324 49.3883 169.842 49.6906 170.278 50.1071C170.71 50.5202 171.05 51.0441 171.298 51.6822C171.542 52.317 171.664 53.0861 171.664 53.9895V62.5605H168.588Z" fill="#84858C"/>
<path d="M182.082 47.1581C181.973 47.1045 181.761 47.0238 181.445 46.9229C181.124 46.8223 180.705 46.7718 180.177 46.7718C179.708 46.7718 179.312 46.9164 178.995 47.2017C178.679 47.4872 178.52 47.954 178.52 48.5989V49.2336H181.349V52.001H178.547V62.5703H175.173V52.001H173.434V49.2336H175.173V48.5149C175.173 47.6484 175.282 46.9163 175.5 46.3151C175.718 45.7173 176.021 45.2269 176.411 44.8508C176.8 44.4712 177.259 44.1925 177.784 44.0179C178.312 43.8431 178.883 43.7559 179.5 43.7559C180.316 43.7559 180.989 43.8331 181.524 43.991C182.059 44.149 182.372 44.253 182.461 44.3101L182.082 47.1581Z" fill="#84858C"/>
<path d="M191.277 55.8331C191.277 55.279 191.211 54.7517 191.085 54.2513C190.96 53.7509 190.768 53.321 190.514 52.9616C190.26 52.5989 189.953 52.3134 189.59 52.1018C189.227 51.8868 188.801 51.7794 188.313 51.7794C187.824 51.7794 187.395 51.8869 187.035 52.1018C186.672 52.3134 186.362 52.5989 186.108 52.9616C185.857 53.321 185.665 53.7509 185.537 54.2513C185.411 54.7517 185.349 55.279 185.349 55.8331C185.349 56.4074 185.411 56.9414 185.537 57.4318C185.665 57.9221 185.85 58.352 186.095 58.7214C186.339 59.0909 186.649 59.3831 187.019 59.598C187.392 59.8096 187.824 59.9171 188.313 59.9171C188.801 59.9171 189.227 59.8096 189.59 59.598C189.953 59.3831 190.26 59.0909 190.514 58.7214C190.768 58.352 190.96 57.9221 191.085 57.4318C191.211 56.9414 191.277 56.4074 191.277 55.8331ZM194.594 55.8478C194.594 56.7176 194.462 57.5707 194.198 58.4103C193.937 59.2499 193.548 59.9989 193.03 60.6638C192.515 61.3288 191.861 61.8629 191.072 62.2693C190.283 62.6756 189.362 62.8771 188.313 62.8771C187.26 62.8771 186.339 62.6756 185.553 62.2693C184.764 61.8629 184.111 61.3289 183.593 60.6639C183.078 59.9989 182.688 59.2499 182.424 58.4103C182.16 57.5707 182.031 56.7176 182.031 55.8478C182.031 54.9813 182.16 54.1349 182.424 53.302C182.688 52.4724 183.078 51.7302 183.593 51.0753C184.111 50.4204 184.764 49.8964 185.553 49.5001C186.339 49.1038 187.26 48.9023 188.313 48.9023C189.362 48.9023 190.28 49.1039 191.059 49.5001C191.838 49.8964 192.491 50.4204 193.016 51.0753C193.544 51.7302 193.937 52.4724 194.198 53.302C194.462 54.1349 194.594 54.9813 194.594 55.8478Z" fill="#84858C"/>
<path d="M205.059 62.5701V54.9631C205.059 53.9488 204.851 53.1629 204.435 52.6087C204.016 52.0579 203.438 51.7792 202.692 51.7792C202.167 51.7792 201.682 51.9169 201.24 52.1956C200.794 52.471 200.408 52.7766 200.081 53.1091V62.5701H196.711V49.2334H199.784L199.946 50.2847C200.474 49.8447 201.065 49.5021 201.728 49.2636C202.388 49.0219 203.055 48.9043 203.725 48.9043C204.415 48.9043 205.049 49.0084 205.63 49.22C206.211 49.4349 206.709 49.7708 207.125 50.2309C207.544 50.691 207.864 51.2922 208.092 52.0277C208.317 52.7666 208.432 53.6532 208.432 54.6843V62.5701H205.059Z" fill="#84858C"/>
<path d="M218.921 54.2986C218.885 53.8385 218.789 53.4354 218.634 53.0962C218.479 52.7536 218.288 52.4783 218.06 52.2667C217.832 52.0517 217.588 51.8972 217.324 51.7931C217.057 51.6924 216.789 51.642 216.515 51.642C215.931 51.642 215.376 51.8636 214.848 52.307C214.32 52.7503 214.01 53.4119 213.917 54.2986H218.921ZM213.838 56.7603C213.911 57.8854 214.254 58.6983 214.875 59.1953C215.492 59.6924 216.294 59.9442 217.274 59.9442C217.73 59.9442 218.159 59.9006 218.558 59.8199C218.958 59.7361 219.314 59.6318 219.625 59.5009C219.935 59.3732 220.199 59.2423 220.417 59.1147C220.635 58.9838 220.796 58.8628 220.909 58.752L221.806 61.5496C221.678 61.6402 221.473 61.7646 221.192 61.9224C220.912 62.0803 220.562 62.2247 220.146 62.3657C219.73 62.5034 219.238 62.621 218.677 62.7251C218.116 62.8257 217.499 62.8762 216.829 62.8762C215.974 62.8762 215.165 62.7385 214.393 62.4631C213.624 62.1843 212.947 61.7544 212.369 61.1734C211.788 60.5924 211.326 59.8703 210.983 59.0038C210.636 58.1373 210.465 57.1029 210.465 55.9039C210.465 54.7788 210.623 53.7813 210.94 52.9148C211.257 52.0483 211.693 51.3195 212.244 50.7284C212.799 50.1406 213.442 49.6873 214.175 49.3715C214.911 49.0592 215.693 48.9014 216.528 48.9014C217.364 48.9014 218.133 49.0425 218.842 49.3178C219.549 49.5932 220.159 50.0231 220.678 50.6041C221.192 51.1852 221.602 51.9374 221.899 52.861C222.199 53.7813 222.348 54.8796 222.348 56.1524V56.7603L213.838 56.7603Z" fill="#84858C"/>
</g>
<defs>
<clipPath id="clip0_3392_5706">
<rect width="148" height="40" fill="white" transform="translate(75.5 35)"/>
</clipPath>
</defs>
</svg>
